<svg width="740" height="487" viewBox="0 0 740 487" fill="none" xmlns="http://www.w3.org/2000/svg">
<line y1="61" x2="54" y2="61" stroke="#D1D8DF" stroke-width="2"/>
<line x1="4" y1="129" x2="4" y2="70" stroke="#D1D8DF" stroke-width="2"/>
<line x1="9" y1="112" x2="9" y2="53" stroke="#D1D8DF" stroke-width="2"/>
<rect x="22" y="86" width="10" height="164" fill="#E0F0E5" fill-opacity="0.6"/>
<rect x="22" y="250" width="10" height="45" fill="#E5E8EB" fill-opacity="0.5"/>
<rect x="20" y="65" width="14" height="14" fill="#D1D8DF" fill-opacity="0.7"/>
<line y1="-1" x2="54" y2="-1" transform="matrix(-1 0 0 1 740 62)" stroke="#D1D8DF" stroke-width="2"/>
<line y1="-1" x2="59" y2="-1" transform="matrix(0 -1 -1 0 735 129)" stroke="#D1D8DF" stroke-width="2"/>
<line y1="-1" x2="59" y2="-1" transform="matrix(0 -1 -1 0 730 112)" stroke="#D1D8DF" stroke-width="2"/>
<rect width="10" height="164" transform="matrix(-1 0 0 1 718 86)" fill="#E0F0E5" fill-opacity="0.6"/>
<rect width="10" height="45" transform="matrix(-1 0 0 1 718 250)" fill="#E5E8EB" fill-opacity="0.5"/>
<rect width="14" height="14" transform="matrix(-1 0 0 1 720 65)" fill="#D1D8DF" fill-opacity="0.7"/>
<line x1="9" y1="53.5" x2="733.001" y2="53.5" stroke="#D9DFE4"/>
<line x1="9" y1="53" x2="733.001" y2="53" stroke="#D9DFE4" stroke-width="2"/>
<line x1="9" y1="77" x2="733.001" y2="77" stroke="#D9DFE4" stroke-width="2"/>
<line x1="9" y1="103" x2="733.001" y2="103" stroke="#D9DFE4" stroke-width="2"/>
<line x1="9" y1="126" x2="733.001" y2="126" stroke="#D9DFE4" stroke-width="2"/>
<line x1="9" y1="150" x2="733.001" y2="150" stroke="#D9DFE4" stroke-width="2"/>
<line x1="9" y1="173" x2="733.001" y2="173" stroke="#D9DFE4" stroke-width="2"/>
<line x1="9" y1="195" x2="733.001" y2="195" stroke="#D9DFE4" stroke-width="2"/>
<line x1="9" y1="218" x2="733.001" y2="218" stroke="#D9DFE4" stroke-width="2"/>
<line x1="9" y1="242" x2="733.001" y2="242" stroke="#D9DFE4" stroke-width="2"/>
<line x1="9" y1="266" x2="733.001" y2="266" stroke="#D9DFE4" stroke-width="2"/>
<line x1="9" y1="291" x2="733.001" y2="291" stroke="#D9DFE4" stroke-width="2"/>
<line x1="9" y1="315" x2="733.001" y2="315" stroke="#D9DFE4" stroke-width="2"/>
<line x1="9" y1="338" x2="733.001" y2="338" stroke="#D9DFE4" stroke-width="2"/>
<line x1="9" y1="361" x2="733.001" y2="361" stroke="#D9DFE4" stroke-width="2"/>
<line x1="9" y1="384" x2="733.001" y2="384" stroke="#D9DFE4" stroke-width="2"/>
<line x1="9" y1="407" x2="733.001" y2="407" stroke="#D9DFE4" stroke-width="2"/>
<line x1="9" y1="430" x2="733.001" y2="430" stroke="#D9DFE4" stroke-width="2"/>
<line x1="9" y1="453" x2="733.001" y2="453" stroke="#D9DFE4" stroke-width="2"/>
<line x1="9" y1="31" x2="733.001" y2="31" stroke="#D9DFE4" stroke-width="2"/>
<line x1="9" y1="7" x2="733.001" y2="7" stroke="#D9DFE4" stroke-width="2"/>
<line x1="34" y1="476" x2="34" y2="-4.37114e-08" stroke="#D9DFE4" stroke-width="2"/>
<line x1="61" y1="476" x2="61" y2="-4.37114e-08" stroke="#D9DFE4" stroke-width="2"/>
<line x1="680" y1="476" x2="680" y2="-4.37114e-08" stroke="#D9DFE4" stroke-width="2"/>
<line x1="705" y1="476" x2="705" y2="-4.37114e-08" stroke="#D9DFE4" stroke-width="2"/>
<g filter="url(#filter0_f_115_608)">
<path d="M40.5 159.5H53C54 175 60.5 175.5 67 175.5" stroke="#B7D1E1" stroke-width="2"/>
<path d="M82 159.5H94.5C95.5 175 102 175.5 108.5 175.5" stroke="#B7D1E1" stroke-width="2"/>
<path d="M123.5 159.5H136C137 175 143.5 175.5 150 175.5" stroke="#B7D1E1" stroke-width="2"/>
<path d="M164 159.5H175.5C176.5 175 183 175.5 189.5 175.5" stroke="#B7D1E1" stroke-width="2"/>
<path d="M204.5 159.5H217C218 175 224.5 175.5 231 175.5" stroke="#B7D1E1" stroke-width="2"/>
<path d="M244 159.5H256.5C257.5 175 264 175.5 270.5 175.5" stroke="#B7D1E1" stroke-width="2"/>
<path d="M285.5 159.5H298C299 175 305.5 175.5 312 175.5" stroke="#B7D1E1" stroke-width="2"/>
<path d="M326 159.5H338.5C339.5 175 346 175.5 352.5 175.5" stroke="#B7D1E1" stroke-width="2"/>
<path d="M366.5 159.5H379C380 175 386.5 175.5 393 175.5" stroke="#B7D1E1" stroke-width="2"/>
<path d="M407 159.5H419.5C420.5 175 427 175.5 433.5 175.5" stroke="#B7D1E1" stroke-width="2"/>
<path d="M447.5 159.5H460C461 175 467.5 175.5 474 175.5" stroke="#B7D1E1" stroke-width="2"/>
<path d="M488 159.5H500.5C501.5 175 508 175.5 514.5 175.5" stroke="#B7D1E1" stroke-width="2"/>
<path d="M528.5 159.5H541C542 175 548.5 175.5 555 175.5" stroke="#B7D1E1" stroke-width="2"/>
<path d="M570 159.5H582.5C583.5 175 590 175.5 596.5 175.5" stroke="#B7D1E1" stroke-width="2"/>
<path d="M611.5 159.5H624C625 175 631.5 175.5 638 175.5" stroke="#B7D1E1" stroke-width="2"/>
<path d="M653 159.5H665.5C666.5 175 673 175.5 679.5 175.5" stroke="#B7D1E1" stroke-width="2"/>
<path d="M93.5 159.5H81C80 175 73.5 175.5 67 175.5" stroke="#B7D1E1" stroke-width="2"/>
<path d="M135 159.5H122.5C121.5 175 115 175.5 108.5 175.5" stroke="#B7D1E1" stroke-width="2"/>
<path d="M175.5 159.5H164C163 175 156.5 175.5 150 175.5" stroke="#B7D1E1" stroke-width="2"/>
<path d="M216 159.5H203.5C202.5 175 196 175.5 189.5 175.5" stroke="#B7D1E1" stroke-width="2"/>
<path d="M255.5 159.5H243C242 175 235.5 175.5 229 175.5" stroke="#B7D1E1" stroke-width="2"/>
<path d="M297 159.5H284.5C283.5 175 277 175.5 270.5 175.5" stroke="#B7D1E1" stroke-width="2"/>
<path d="M337.5 159.5H325C324 175 317.5 175.5 311 175.5" stroke="#B7D1E1" stroke-width="2"/>
<path d="M378 159.5H365.5C364.5 175 358 175.5 351.5 175.5" stroke="#B7D1E1" stroke-width="2"/>
<path d="M418.5 159.5H406C405 175 398.5 175.5 392 175.5" stroke="#B7D1E1" stroke-width="2"/>
<path d="M459 159.5H446.5C445.5 175 439 175.5 432.5 175.5" stroke="#B7D1E1" stroke-width="2"/>
<path d="M499.5 159.5H487C486 175 479.5 175.5 473 175.5" stroke="#B7D1E1" stroke-width="2"/>
<path d="M540 159.5H527.5C526.5 175 520 175.5 513.5 175.5" stroke="#B7D1E1" stroke-width="2"/>
<path d="M581.5 159.5H569C568 175 561.5 175.5 555 175.5" stroke="#B7D1E1" stroke-width="2"/>
<path d="M623 159.5H610.5C609.5 175 603 175.5 596.5 175.5" stroke="#B7D1E1" stroke-width="2"/>
<path d="M664.5 159.5H652C651 175 644.5 175.5 638 175.5" stroke="#B7D1E1" stroke-width="2"/>
<path d="M706 159.5H693.5C692.5 175 686 175.5 679.5 175.5" stroke="#B7D1E1" stroke-width="2"/>
<path d="M40.5 485H53C54 469.5 60.5 469 67 469" stroke="#B7D1E1" stroke-width="2"/>
<path d="M82 485H94.5C95.5 469.5 102 469 108.5 469" stroke="#B7D1E1" stroke-width="2"/>
<path d="M123.5 485H136C137 469.5 143.5 469 150 469" stroke="#B7D1E1" stroke-width="2"/>
<path d="M164 485H175.5C176.5 469.5 183 469 189.5 469" stroke="#B7D1E1" stroke-width="2"/>
<path d="M204.5 485H217C218 469.5 224.5 469 231 469" stroke="#B7D1E1" stroke-width="2"/>
<path d="M244 485H256.5C257.5 469.5 264 469 270.5 469" stroke="#B7D1E1" stroke-width="2"/>
<path d="M285.5 485H298C299 469.5 305.5 469 312 469" stroke="#B7D1E1" stroke-width="2"/>
<path d="M326 485H338.5C339.5 469.5 346 469 352.5 469" stroke="#B7D1E1" stroke-width="2"/>
<path d="M366.5 485H379C380 469.5 386.5 469 393 469" stroke="#B7D1E1" stroke-width="2"/>
<path d="M407 485H419.5C420.5 469.5 427 469 433.5 469" stroke="#B7D1E1" stroke-width="2"/>
<path d="M447.5 485H460C461 469.5 467.5 469 474 469" stroke="#B7D1E1" stroke-width="2"/>
<path d="M488 485H500.5C501.5 469.5 508 469 514.5 469" stroke="#B7D1E1" stroke-width="2"/>
<path d="M528.5 485H541C542 469.5 548.5 469 555 469" stroke="#B7D1E1" stroke-width="2"/>
<path d="M570 485H582.5C583.5 469.5 590 469 596.5 469" stroke="#B7D1E1" stroke-width="2"/>
<path d="M611.5 485H624C625 469.5 631.5 469 638 469" stroke="#B7D1E1" stroke-width="2"/>
<path d="M653 485H665.5C666.5 469.5 673 469 679.5 469" stroke="#B7D1E1" stroke-width="2"/>
<path d="M93.5 485H81C80 469.5 73.5 469 67 469" stroke="#B7D1E1" stroke-width="2"/>
<path d="M135 485H122.5C121.5 469.5 115 469 108.5 469" stroke="#B7D1E1" stroke-width="2"/>
<path d="M175.5 485H164C163 469.5 156.5 469 150 469" stroke="#B7D1E1" stroke-width="2"/>
<path d="M216 485H203.5C202.5 469.5 196 469 189.5 469" stroke="#B7D1E1" stroke-width="2"/>
<path d="M255.5 485H243C242 469.5 235.5 469 229 469" stroke="#B7D1E1" stroke-width="2"/>
<path d="M297 485H284.5C283.5 469.5 277 469 270.5 469" stroke="#B7D1E1" stroke-width="2"/>
<path d="M337.5 485H325C324 469.5 317.5 469 311 469" stroke="#B7D1E1" stroke-width="2"/>
<path d="M378 485H365.5C364.5 469.5 358 469 351.5 469" stroke="#B7D1E1" stroke-width="2"/>
<path d="M418.5 485H406C405 469.5 398.5 469 392 469" stroke="#B7D1E1" stroke-width="2"/>
<path d="M459 485H446.5C445.5 469.5 439 469 432.5 469" stroke="#B7D1E1" stroke-width="2"/>
<path d="M499.5 485H487C486 469.5 479.5 469 473 469" stroke="#B7D1E1" stroke-width="2"/>
<path d="M540 485H527.5C526.5 469.5 520 469 513.5 469" stroke="#B7D1E1" stroke-width="2"/>
<path d="M581.5 485H569C568 469.5 561.5 469 555 469" stroke="#B7D1E1" stroke-width="2"/>
<path d="M623 485H610.5C609.5 469.5 603 469 596.5 469" stroke="#B7D1E1" stroke-width="2"/>
<path d="M664.5 485H652C651 469.5 644.5 469 638 469" stroke="#B7D1E1" stroke-width="2"/>
<path d="M706 485H693.5C692.5 469.5 686 469 679.5 469" stroke="#B7D1E1" stroke-width="2"/>
<path d="M25 467.206V454.877C40.5 453.891 41 447.48 41 441.069" stroke="#B7D1E1" stroke-width="2"/>
<path d="M25 427.261V414.933C40.5 413.947 41 407.536 41 401.125" stroke="#B7D1E1" stroke-width="2"/>
<path d="M25 386.317V373.989C40.5 373.002 41 366.592 41 360.181" stroke="#B7D1E1" stroke-width="2"/>
<path d="M25 344V333.151C40.5 332.283 41 326.642 41 321" stroke="#B7D1E1" stroke-width="2"/>
<path d="M25 309.428V297.1C40.5 296.114 41 289.703 41 283.292" stroke="#B7D1E1" stroke-width="2"/>
<path d="M25 268.498V256.169C40.5 255.183 41 248.772 41 242.361" stroke="#B7D1E1" stroke-width="2"/>
<path d="M25 227.567V215.239C40.5 214.252 41 207.842 41 201.431" stroke="#B7D1E1" stroke-width="2"/>
<path d="M25 186.636V174.308C40.5 173.322 41 166.911 41 160.5" stroke="#B7D1E1" stroke-width="2"/>
<path d="M25 455.864V468.192C40.5 469.178 41 475.589 41 482" stroke="#B7D1E1" stroke-width="2"/>
<path d="M25 413.919V426.248C40.5 427.234 41 433.645 41 440.056" stroke="#B7D1E1" stroke-width="2"/>
<path d="M25 372.975V385.303C40.5 386.29 41 392.7 41 399.111" stroke="#B7D1E1" stroke-width="2"/>
<path d="M25 332.031V344.359C40.5 345.345 41 351.756 41 358.167" stroke="#B7D1E1" stroke-width="2"/>
<path d="M25 312.928V300.6C40.5 299.614 41 293.203 41 286.792" stroke="#B7D1E1" stroke-width="2"/>
<path d="M25 231.067V218.739C40.5 217.752 41 211.342 41 204.931" stroke="#B7D1E1" stroke-width="2"/>
<path d="M25 272.067V259.739C40.5 258.752 41 252.342 41 245.931" stroke="#B7D1E1" stroke-width="2"/>
<path d="M25 190.136V177.808C40.5 176.822 41 170.411 41 164" stroke="#B7D1E1" stroke-width="2"/>
<path d="M25 459.364V471.692C40.5 472.678 41 479.089 41 485.5" stroke="#B7D1E1" stroke-width="2"/>
<path d="M25 417.419V429.748C40.5 430.734 41 437.145 41 443.556" stroke="#B7D1E1" stroke-width="2"/>
<path d="M25 376.475V388.803C40.5 389.79 41 396.2 41 402.611" stroke="#B7D1E1" stroke-width="2"/>
<path d="M25 335.531V347.859C40.5 348.845 41 355.256 41 361.667" stroke="#B7D1E1" stroke-width="2"/>
<path d="M25 301V311.849C40.5 312.717 41 318.358 41 324" stroke="#B7D1E1" stroke-width="2"/>
<path d="M25 260.656V272.984C40.5 273.97 41 280.381 41 286.792" stroke="#B7D1E1" stroke-width="2"/>
<path d="M25 219.725V232.053C40.5 233.04 41 239.45 41 245.861" stroke="#B7D1E1" stroke-width="2"/>
<path d="M25 178.794V191.123C40.5 192.109 41 198.52 41 204.931" stroke="#B7D1E1" stroke-width="2"/>
<path d="M721 467.206V454.877C705.5 453.891 705 447.48 705 441.069" stroke="#B7D1E1" stroke-width="2"/>
<path d="M721 427.261V414.933C705.5 413.947 705 407.536 705 401.125" stroke="#B7D1E1" stroke-width="2"/>
<path d="M721 386.317V373.989C705.5 373.002 705 366.592 705 360.181" stroke="#B7D1E1" stroke-width="2"/>
<path d="M721 344V333.151C705.5 332.283 705 326.642 705 321" stroke="#B7D1E1" stroke-width="2"/>
<path d="M721 309.428V297.1C705.5 296.114 705 289.703 705 283.292" stroke="#B7D1E1" stroke-width="2"/>
<path d="M721 268.498V256.169C705.5 255.183 705 248.772 705 242.361" stroke="#B7D1E1" stroke-width="2"/>
<path d="M721 227.567V215.239C705.5 214.252 705 207.842 705 201.431" stroke="#B7D1E1" stroke-width="2"/>
<path d="M721 186.636V174.308C705.5 173.322 705 166.911 705 160.5" stroke="#B7D1E1" stroke-width="2"/>
<path d="M721 455.864V468.192C705.5 469.178 705 475.589 705 482" stroke="#B7D1E1" stroke-width="2"/>
<path d="M721 413.919V426.248C705.5 427.234 705 433.645 705 440.056" stroke="#B7D1E1" stroke-width="2"/>
<path d="M721 372.975V385.303C705.5 386.29 705 392.7 705 399.111" stroke="#B7D1E1" stroke-width="2"/>
<path d="M721 332.031V344.359C705.5 345.345 705 351.756 705 358.167" stroke="#B7D1E1" stroke-width="2"/>
<path d="M721 312.928V300.6C705.5 299.614 705 293.203 705 286.792" stroke="#B7D1E1" stroke-width="2"/>
<path d="M721 231.067V218.739C705.5 217.752 705 211.342 705 204.931" stroke="#B7D1E1" stroke-width="2"/>
<path d="M721 272.067V259.739C705.5 258.752 705 252.342 705 245.931" stroke="#B7D1E1" stroke-width="2"/>
<path d="M721 190.136V177.808C705.5 176.822 705 170.411 705 164" stroke="#B7D1E1" stroke-width="2"/>
<path d="M721 459.364V471.692C705.5 472.678 705 479.089 705 485.5" stroke="#B7D1E1" stroke-width="2"/>
<path d="M721 417.419V429.748C705.5 430.734 705 437.145 705 443.556" stroke="#B7D1E1" stroke-width="2"/>
<path d="M721 376.475V388.803C705.5 389.79 705 396.2 705 402.611" stroke="#B7D1E1" stroke-width="2"/>
<path d="M721 335.531V347.859C705.5 348.845 705 355.256 705 361.667" stroke="#B7D1E1" stroke-width="2"/>
<path d="M721 301V311.849C705.5 312.717 705 318.358 705 324" stroke="#B7D1E1" stroke-width="2"/>
<path d="M721 260.656V272.984C705.5 273.97 705 280.381 705 286.792" stroke="#B7D1E1" stroke-width="2"/>
<path d="M721 219.725V232.053C705.5 233.04 705 239.45 705 245.861" stroke="#B7D1E1" stroke-width="2"/>
<path d="M721 178.794V191.123C705.5 192.109 705 198.52 705 204.931" stroke="#B7D1E1" stroke-width="2"/>
</g>
<g filter="url(#filter1_if_115_608)">
<circle cx="168" cy="54" r="10" fill="white"/>
<circle cx="168" cy="54" r="9.5" stroke="#070C32" stroke-opacity="0.1"/>
</g>
<g filter="url(#filter2_if_115_608)">
<circle cx="226" cy="54" r="10" fill="white"/>
<circle cx="226" cy="54" r="9.5" stroke="#070C32" stroke-opacity="0.1"/>
</g>
<g filter="url(#filter3_if_115_608)">
<circle cx="285" cy="54" r="10" fill="white"/>
<circle cx="285" cy="54" r="9.5" stroke="#070C32" stroke-opacity="0.1"/>
</g>
<g filter="url(#filter4_if_115_608)">
<circle cx="343" cy="54" r="10" fill="white"/>
<circle cx="343" cy="54" r="9.5" stroke="#070C32" stroke-opacity="0.1"/>
</g>
<g filter="url(#filter5_if_115_608)">
<circle cx="402" cy="54" r="10" fill="white"/>
<circle cx="402" cy="54" r="9.5" stroke="#070C32" stroke-opacity="0.1"/>
</g>
<g filter="url(#filter6_if_115_608)">
<circle cx="462" cy="54" r="10" fill="white"/>
<circle cx="462" cy="54" r="9.5" stroke="#070C32" stroke-opacity="0.1"/>
</g>
<g filter="url(#filter7_if_115_608)">
<circle cx="520" cy="54" r="10" fill="white"/>
<circle cx="520" cy="54" r="9.5" stroke="#070C32" stroke-opacity="0.1"/>
</g>
<g filter="url(#filter8_if_115_608)">
<circle cx="578" cy="54" r="10" fill="white"/>
<circle cx="578" cy="54" r="9.5" stroke="#070C32" stroke-opacity="0.1"/>
</g>
<defs>
<filter id="filter0_f_115_608" x="23" y="157.5" width="700" height="329.5" filterUnits="userSpaceOnUse" color-interpolation-filters="sRGB">
<feFlood flood-opacity="0" result="BackgroundImageFix"/>
<feBlend mode="normal" in="SourceGraphic" in2="BackgroundImageFix" result="shape"/>
<feGaussianBlur stdDeviation="0.5" result="effect1_foregroundBlur_115_608"/>
</filter>
<filter id="filter1_if_115_608" x="157" y="43" width="23" height="25" filterUnits="userSpaceOnUse" color-interpolation-filters="sRGB">
<feFlood flood-opacity="0" result="BackgroundImageFix"/>
<feBlend mode="normal" in="SourceGraphic" in2="BackgroundImageFix" result="shape"/>
<feColorMatrix in="SourceAlpha" type="matrix" values="0 0 0 0 0 0 0 0 0 0 0 0 0 0 0 0 0 0 127 0" result="hardAlpha"/>
<feOffset dx="2" dy="4"/>
<feGaussianBlur stdDeviation="2"/>
<feComposite in2="hardAlpha" operator="arithmetic" k2="-1" k3="1"/>
<feColorMatrix type="matrix" values="0 0 0 0 0 0 0 0 0 0 0 0 0 0 0 0 0 0 0.25 0"/>
<feBlend mode="normal" in2="shape" result="effect1_innerShadow_115_608"/>
<feGaussianBlur stdDeviation="0.5" result="effect2_foregroundBlur_115_608"/>
</filter>
<filter id="filter2_if_115_608" x="215" y="43" width="23" height="25" filterUnits="userSpaceOnUse" color-interpolation-filters="sRGB">
<feFlood flood-opacity="0" result="BackgroundImageFix"/>
<feBlend mode="normal" in="SourceGraphic" in2="BackgroundImageFix" result="shape"/>
<feColorMatrix in="SourceAlpha" type="matrix" values="0 0 0 0 0 0 0 0 0 0 0 0 0 0 0 0 0 0 127 0" result="hardAlpha"/>
<feOffset dx="2" dy="4"/>
<feGaussianBlur stdDeviation="2"/>
<feComposite in2="hardAlpha" operator="arithmetic" k2="-1" k3="1"/>
<feColorMatrix type="matrix" values="0 0 0 0 0 0 0 0 0 0 0 0 0 0 0 0 0 0 0.25 0"/>
<feBlend mode="normal" in2="shape" result="effect1_innerShadow_115_608"/>
<feGaussianBlur stdDeviation="0.5" result="effect2_foregroundBlur_115_608"/>
</filter>
<filter id="filter3_if_115_608" x="274" y="43" width="23" height="25" filterUnits="userSpaceOnUse" color-interpolation-filters="sRGB">
<feFlood flood-opacity="0" result="BackgroundImageFix"/>
<feBlend mode="normal" in="SourceGraphic" in2="BackgroundImageFix" result="shape"/>
<feColorMatrix in="SourceAlpha" type="matrix" values="0 0 0 0 0 0 0 0 0 0 0 0 0 0 0 0 0 0 127 0" result="hardAlpha"/>
<feOffset dx="2" dy="4"/>
<feGaussianBlur stdDeviation="2"/>
<feComposite in2="hardAlpha" operator="arithmetic" k2="-1" k3="1"/>
<feColorMatrix type="matrix" values="0 0 0 0 0 0 0 0 0 0 0 0 0 0 0 0 0 0 0.25 0"/>
<feBlend mode="normal" in2="shape" result="effect1_innerShadow_115_608"/>
<feGaussianBlur stdDeviation="0.5" result="effect2_foregroundBlur_115_608"/>
</filter>
<filter id="filter4_if_115_608" x="332" y="43" width="23" height="25" filterUnits="userSpaceOnUse" color-interpolation-filters="sRGB">
<feFlood flood-opacity="0" result="BackgroundImageFix"/>
<feBlend mode="normal" in="SourceGraphic" in2="BackgroundImageFix" result="shape"/>
<feColorMatrix in="SourceAlpha" type="matrix" values="0 0 0 0 0 0 0 0 0 0 0 0 0 0 0 0 0 0 127 0" result="hardAlpha"/>
<feOffset dx="2" dy="4"/>
<feGaussianBlur stdDeviation="2"/>
<feComposite in2="hardAlpha" operator="arithmetic" k2="-1" k3="1"/>
<feColorMatrix type="matrix" values="0 0 0 0 0 0 0 0 0 0 0 0 0 0 0 0 0 0 0.25 0"/>
<feBlend mode="normal" in2="shape" result="effect1_innerShadow_115_608"/>
<feGaussianBlur stdDeviation="0.5" result="effect2_foregroundBlur_115_608"/>
</filter>
<filter id="filter5_if_115_608" x="391" y="43" width="23" height="25" filterUnits="userSpaceOnUse" color-interpolation-filters="sRGB">
<feFlood flood-opacity="0" result="BackgroundImageFix"/>
<feBlend mode="normal" in="SourceGraphic" in2="BackgroundImageFix" result="shape"/>
<feColorMatrix in="SourceAlpha" type="matrix" values="0 0 0 0 0 0 0 0 0 0 0 0 0 0 0 0 0 0 127 0" result="hardAlpha"/>
<feOffset dx="2" dy="4"/>
<feGaussianBlur stdDeviation="2"/>
<feComposite in2="hardAlpha" operator="arithmetic" k2="-1" k3="1"/>
<feColorMatrix type="matrix" values="0 0 0 0 0 0 0 0 0 0 0 0 0 0 0 0 0 0 0.25 0"/>
<feBlend mode="normal" in2="shape" result="effect1_innerShadow_115_608"/>
<feGaussianBlur stdDeviation="0.5" result="effect2_foregroundBlur_115_608"/>
</filter>
<filter id="filter6_if_115_608" x="451" y="43" width="23" height="25" filterUnits="userSpaceOnUse" color-interpolation-filters="sRGB">
<feFlood flood-opacity="0" result="BackgroundImageFix"/>
<feBlend mode="normal" in="SourceGraphic" in2="BackgroundImageFix" result="shape"/>
<feColorMatrix in="SourceAlpha" type="matrix" values="0 0 0 0 0 0 0 0 0 0 0 0 0 0 0 0 0 0 127 0" result="hardAlpha"/>
<feOffset dx="2" dy="4"/>
<feGaussianBlur stdDeviation="2"/>
<feComposite in2="hardAlpha" operator="arithmetic" k2="-1" k3="1"/>
<feColorMatrix type="matrix" values="0 0 0 0 0 0 0 0 0 0 0 0 0 0 0 0 0 0 0.25 0"/>
<feBlend mode="normal" in2="shape" result="effect1_innerShadow_115_608"/>
<feGaussianBlur stdDeviation="0.5" result="effect2_foregroundBlur_115_608"/>
</filter>
<filter id="filter7_if_115_608" x="509" y="43" width="23" height="25" filterUnits="userSpaceOnUse" color-interpolation-filters="sRGB">
<feFlood flood-opacity="0" result="BackgroundImageFix"/>
<feBlend mode="normal" in="SourceGraphic" in2="BackgroundImageFix" result="shape"/>
<feColorMatrix in="SourceAlpha" type="matrix" values="0 0 0 0 0 0 0 0 0 0 0 0 0 0 0 0 0 0 127 0" result="hardAlpha"/>
<feOffset dx="2" dy="4"/>
<feGaussianBlur stdDeviation="2"/>
<feComposite in2="hardAlpha" operator="arithmetic" k2="-1" k3="1"/>
<feColorMatrix type="matrix" values="0 0 0 0 0 0 0 0 0 0 0 0 0 0 0 0 0 0 0.25 0"/>
<feBlend mode="normal" in2="shape" result="effect1_innerShadow_115_608"/>
<feGaussianBlur stdDeviation="0.5" result="effect2_foregroundBlur_115_608"/>
</filter>
<filter id="filter8_if_115_608" x="567" y="43" width="23" height="25" filterUnits="userSpaceOnUse" color-interpolation-filters="sRGB">
<feFlood flood-opacity="0" result="BackgroundImageFix"/>
<feBlend mode="normal" in="SourceGraphic" in2="BackgroundImageFix" result="shape"/>
<feColorMatrix in="SourceAlpha" type="matrix" values="0 0 0 0 0 0 0 0 0 0 0 0 0 0 0 0 0 0 127 0" result="hardAlpha"/>
<feOffset dx="2" dy="4"/>
<feGaussianBlur stdDeviation="2"/>
<feComposite in2="hardAlpha" operator="arithmetic" k2="-1" k3="1"/>
<feColorMatrix type="matrix" values="0 0 0 0 0 0 0 0 0 0 0 0 0 0 0 0 0 0 0.25 0"/>
<feBlend mode="normal" in2="shape" result="effect1_innerShadow_115_608"/>
<feGaussianBlur stdDeviation="0.5" result="effect2_foregroundBlur_115_608"/>
</filter>
</defs>
</svg>
