<svg width="740" height="532" viewBox="0 0 740 532" fill="none" xmlns="http://www.w3.org/2000/svg">
<line y1="65" x2="54" y2="65" stroke="#D1D8DF" stroke-width="2"/>
<line x1="4" y1="133" x2="4" y2="74" stroke="#D1D8DF" stroke-width="2"/>
<line x1="9" y1="116" x2="9" y2="57" stroke="#D1D8DF" stroke-width="2"/>
<rect x="22" y="90" width="10" height="164" fill="#E0F0E5" fill-opacity="0.6"/>
<rect x="22" y="254" width="10" height="45" fill="#E5E8EB" fill-opacity="0.5"/>
<rect x="20" y="69" width="14" height="14" fill="#D1D8DF" fill-opacity="0.7"/>
<line y1="-1" x2="54" y2="-1" transform="matrix(-1 0 0 1 740 66)" stroke="#D1D8DF" stroke-width="2"/>
<line y1="-1" x2="59" y2="-1" transform="matrix(0 -1 -1 0 735 133)" stroke="#D1D8DF" stroke-width="2"/>
<line y1="-1" x2="59" y2="-1" transform="matrix(0 -1 -1 0 730 116)" stroke="#D1D8DF" stroke-width="2"/>
<rect width="10" height="164" transform="matrix(-1 0 0 1 718 90)" fill="#E0F0E5" fill-opacity="0.6"/>
<rect width="10" height="45" transform="matrix(-1 0 0 1 718 254)" fill="#E5E8EB" fill-opacity="0.5"/>
<rect width="14" height="14" transform="matrix(-1 0 0 1 720 69)" fill="#D1D8DF" fill-opacity="0.7"/>
<line x1="9" y1="57.5" x2="733.001" y2="57.5" stroke="#D9DFE4"/>
<line x1="9" y1="57" x2="733.001" y2="57" stroke="#D9DFE4" stroke-width="2"/>
<line x1="9" y1="81" x2="733.001" y2="81" stroke="#D9DFE4" stroke-width="2"/>
<line x1="9" y1="107" x2="733.001" y2="107" stroke="#D9DFE4" stroke-width="2"/>
<line x1="9" y1="130" x2="733.001" y2="130" stroke="#D9DFE4" stroke-width="2"/>
<line x1="9" y1="154" x2="733.001" y2="154" stroke="#D9DFE4" stroke-width="2"/>
<line x1="9" y1="177" x2="733.001" y2="177" stroke="#D9DFE4" stroke-width="2"/>
<line x1="9" y1="199" x2="733.001" y2="199" stroke="#D9DFE4" stroke-width="2"/>
<line x1="9" y1="222" x2="733.001" y2="222" stroke="#D9DFE4" stroke-width="2"/>
<line x1="9" y1="246" x2="733.001" y2="246" stroke="#D9DFE4" stroke-width="2"/>
<line x1="9" y1="270" x2="733.001" y2="270" stroke="#D9DFE4" stroke-width="2"/>
<line x1="9" y1="295" x2="733.001" y2="295" stroke="#D9DFE4" stroke-width="2"/>
<line x1="9" y1="319" x2="733.001" y2="319" stroke="#D9DFE4" stroke-width="2"/>
<line x1="9" y1="342" x2="733.001" y2="342" stroke="#D9DFE4" stroke-width="2"/>
<line x1="9" y1="365" x2="733.001" y2="365" stroke="#D9DFE4" stroke-width="2"/>
<line x1="9" y1="388" x2="733.001" y2="388" stroke="#D9DFE4" stroke-width="2"/>
<line x1="9" y1="411" x2="733.001" y2="411" stroke="#D9DFE4" stroke-width="2"/>
<line x1="9" y1="434" x2="733.001" y2="434" stroke="#D9DFE4" stroke-width="2"/>
<line x1="9" y1="457" x2="733.001" y2="457" stroke="#D9DFE4" stroke-width="2"/>
<line x1="9" y1="479" x2="733.001" y2="479" stroke="#D9DFE4" stroke-width="2"/>
<line x1="9" y1="501" x2="733.001" y2="501" stroke="#D9DFE4" stroke-width="2"/>
<line x1="9" y1="35" x2="733.001" y2="35" stroke="#D9DFE4" stroke-width="2"/>
<line x1="9" y1="11" x2="733.001" y2="11" stroke="#D9DFE4" stroke-width="2"/>
<line x1="34" y1="480" x2="34" y2="4" stroke="#D9DFE4" stroke-width="2"/>
<line x1="61" y1="526" x2="61" y2="-42" stroke="#D9DFE4" stroke-width="2"/>
<line x1="680" y1="526" x2="680" y2="-42" stroke="#D9DFE4" stroke-width="2"/>
<line x1="705" y1="480" x2="705" y2="4" stroke="#D9DFE4" stroke-width="2"/>
<g filter="url(#filter0_f_115_608)">
<path d="M40.5 163.5H53C54 179 60.5 179.5 67 179.5" stroke="#B7D1E1" stroke-width="2"/>
<path d="M82 163.5H94.5C95.5 179 102 179.5 108.5 179.5" stroke="#B7D1E1" stroke-width="2"/>
<path d="M123.5 163.5H136C137 179 143.5 179.5 150 179.5" stroke="#B7D1E1" stroke-width="2"/>
<path d="M164 163.5H175.5C176.5 179 183 179.5 189.5 179.5" stroke="#B7D1E1" stroke-width="2"/>
<path d="M204.5 163.5H217C218 179 224.5 179.5 231 179.5" stroke="#B7D1E1" stroke-width="2"/>
<path d="M244 163.5H256.5C257.5 179 264 179.5 270.5 179.5" stroke="#B7D1E1" stroke-width="2"/>
<path d="M285.5 163.5H298C299 179 305.5 179.5 312 179.5" stroke="#B7D1E1" stroke-width="2"/>
<path d="M326 163.5H338.5C339.5 179 346 179.5 352.5 179.5" stroke="#B7D1E1" stroke-width="2"/>
<path d="M366.5 163.5H379C380 179 386.5 179.5 393 179.5" stroke="#B7D1E1" stroke-width="2"/>
<path d="M407 163.5H419.5C420.5 179 427 179.5 433.5 179.5" stroke="#B7D1E1" stroke-width="2"/>
<path d="M447.5 163.5H460C461 179 467.5 179.5 474 179.5" stroke="#B7D1E1" stroke-width="2"/>
<path d="M488 163.5H500.5C501.5 179 508 179.5 514.5 179.5" stroke="#B7D1E1" stroke-width="2"/>
<path d="M528.5 163.5H541C542 179 548.5 179.5 555 179.5" stroke="#B7D1E1" stroke-width="2"/>
<path d="M570 163.5H582.5C583.5 179 590 179.5 596.5 179.5" stroke="#B7D1E1" stroke-width="2"/>
<path d="M611.5 163.5H624C625 179 631.5 179.5 638 179.5" stroke="#B7D1E1" stroke-width="2"/>
<path d="M653 163.5H665.5C666.5 179 673 179.5 679.5 179.5" stroke="#B7D1E1" stroke-width="2"/>
<path d="M93.5 163.5H81C80 179 73.5 179.5 67 179.5" stroke="#B7D1E1" stroke-width="2"/>
<path d="M135 163.5H122.5C121.5 179 115 179.5 108.5 179.5" stroke="#B7D1E1" stroke-width="2"/>
<path d="M175.5 163.5H164C163 179 156.5 179.5 150 179.5" stroke="#B7D1E1" stroke-width="2"/>
<path d="M216 163.5H203.5C202.5 179 196 179.5 189.5 179.5" stroke="#B7D1E1" stroke-width="2"/>
<path d="M255.5 163.5H243C242 179 235.5 179.5 229 179.5" stroke="#B7D1E1" stroke-width="2"/>
<path d="M297 163.5H284.5C283.5 179 277 179.5 270.5 179.5" stroke="#B7D1E1" stroke-width="2"/>
<path d="M337.5 163.5H325C324 179 317.5 179.5 311 179.5" stroke="#B7D1E1" stroke-width="2"/>
<path d="M378 163.5H365.5C364.5 179 358 179.5 351.5 179.5" stroke="#B7D1E1" stroke-width="2"/>
<path d="M418.5 163.5H406C405 179 398.5 179.5 392 179.5" stroke="#B7D1E1" stroke-width="2"/>
<path d="M459 163.5H446.5C445.5 179 439 179.5 432.5 179.5" stroke="#B7D1E1" stroke-width="2"/>
<path d="M499.5 163.5H487C486 179 479.5 179.5 473 179.5" stroke="#B7D1E1" stroke-width="2"/>
<path d="M540 163.5H527.5C526.5 179 520 179.5 513.5 179.5" stroke="#B7D1E1" stroke-width="2"/>
<path d="M581.5 163.5H569C568 179 561.5 179.5 555 179.5" stroke="#B7D1E1" stroke-width="2"/>
<path d="M623 163.5H610.5C609.5 179 603 179.5 596.5 179.5" stroke="#B7D1E1" stroke-width="2"/>
<path d="M664.5 163.5H652C651 179 644.5 179.5 638 179.5" stroke="#B7D1E1" stroke-width="2"/>
<path d="M706 163.5H693.5C692.5 179 686 179.5 679.5 179.5" stroke="#B7D1E1" stroke-width="2"/>
<path d="M40.5 530H53C54 514.5 60.5 514 67 514" stroke="#B7D1E1" stroke-width="2"/>
<path d="M82 530H94.5C95.5 514.5 102 514 108.5 514" stroke="#B7D1E1" stroke-width="2"/>
<path d="M123.5 530H136C137 514.5 143.5 514 150 514" stroke="#B7D1E1" stroke-width="2"/>
<path d="M164 530H175.5C176.5 514.5 183 514 189.5 514" stroke="#B7D1E1" stroke-width="2"/>
<path d="M204.5 530H217C218 514.5 224.5 514 231 514" stroke="#B7D1E1" stroke-width="2"/>
<path d="M244 530H256.5C257.5 514.5 264 514 270.5 514" stroke="#B7D1E1" stroke-width="2"/>
<path d="M285.5 530H298C299 514.5 305.5 514 312 514" stroke="#B7D1E1" stroke-width="2"/>
<path d="M326 530H338.5C339.5 514.5 346 514 352.5 514" stroke="#B7D1E1" stroke-width="2"/>
<path d="M366.5 530H379C380 514.5 386.5 514 393 514" stroke="#B7D1E1" stroke-width="2"/>
<path d="M407 530H419.5C420.5 514.5 427 514 433.5 514" stroke="#B7D1E1" stroke-width="2"/>
<path d="M447.5 530H460C461 514.5 467.5 514 474 514" stroke="#B7D1E1" stroke-width="2"/>
<path d="M488 530H500.5C501.5 514.5 508 514 514.5 514" stroke="#B7D1E1" stroke-width="2"/>
<path d="M528.5 530H541C542 514.5 548.5 514 555 514" stroke="#B7D1E1" stroke-width="2"/>
<path d="M570 530H582.5C583.5 514.5 590 514 596.5 514" stroke="#B7D1E1" stroke-width="2"/>
<path d="M611.5 530H624C625 514.5 631.5 514 638 514" stroke="#B7D1E1" stroke-width="2"/>
<path d="M653 530H665.5C666.5 514.5 673 514 679.5 514" stroke="#B7D1E1" stroke-width="2"/>
<path d="M93.5 530H81C80 514.5 73.5 514 67 514" stroke="#B7D1E1" stroke-width="2"/>
<path d="M135 530H122.5C121.5 514.5 115 514 108.5 514" stroke="#B7D1E1" stroke-width="2"/>
<path d="M175.5 530H164C163 514.5 156.5 514 150 514" stroke="#B7D1E1" stroke-width="2"/>
<path d="M216 530H203.5C202.5 514.5 196 514 189.5 514" stroke="#B7D1E1" stroke-width="2"/>
<path d="M255.5 530H243C242 514.5 235.5 514 229 514" stroke="#B7D1E1" stroke-width="2"/>
<path d="M297 530H284.5C283.5 514.5 277 514 270.5 514" stroke="#B7D1E1" stroke-width="2"/>
<path d="M337.5 530H325C324 514.5 317.5 514 311 514" stroke="#B7D1E1" stroke-width="2"/>
<path d="M378 530H365.5C364.5 514.5 358 514 351.5 514" stroke="#B7D1E1" stroke-width="2"/>
<path d="M418.5 530H406C405 514.5 398.5 514 392 514" stroke="#B7D1E1" stroke-width="2"/>
<path d="M459 530H446.5C445.5 514.5 439 514 432.5 514" stroke="#B7D1E1" stroke-width="2"/>
<path d="M499.5 530H487C486 514.5 479.5 514 473 514" stroke="#B7D1E1" stroke-width="2"/>
<path d="M540 530H527.5C526.5 514.5 520 514 513.5 514" stroke="#B7D1E1" stroke-width="2"/>
<path d="M581.5 530H569C568 514.5 561.5 514 555 514" stroke="#B7D1E1" stroke-width="2"/>
<path d="M623 530H610.5C609.5 514.5 603 514 596.5 514" stroke="#B7D1E1" stroke-width="2"/>
<path d="M664.5 530H652C651 514.5 644.5 514 638 514" stroke="#B7D1E1" stroke-width="2"/>
<path d="M706 530H693.5C692.5 514.5 686 514 679.5 514" stroke="#B7D1E1" stroke-width="2"/>
<path d="M25 471.206V458.877C40.5 457.891 41 451.48 41 445.069" stroke="#B7D1E1" stroke-width="2"/>
<path d="M25 511.206V498.877C40.5 497.891 41 491.48 41 485.069" stroke="#B7D1E1" stroke-width="2"/>
<path d="M25 431.261V418.933C40.5 417.947 41 411.536 41 405.125" stroke="#B7D1E1" stroke-width="2"/>
<path d="M25 390.317V377.989C40.5 377.002 41 370.592 41 364.181" stroke="#B7D1E1" stroke-width="2"/>
<path d="M25 348V337.151C40.5 336.283 41 330.642 41 325" stroke="#B7D1E1" stroke-width="2"/>
<path d="M25 313.428V301.1C40.5 300.114 41 293.703 41 287.292" stroke="#B7D1E1" stroke-width="2"/>
<path d="M25 272.498V260.169C40.5 259.183 41 252.772 41 246.361" stroke="#B7D1E1" stroke-width="2"/>
<path d="M25 231.567V219.239C40.5 218.252 41 211.842 41 205.431" stroke="#B7D1E1" stroke-width="2"/>
<path d="M25 190.636V178.308C40.5 177.322 41 170.911 41 164.5" stroke="#B7D1E1" stroke-width="2"/>
<path d="M25 459.864V472.192C40.5 473.178 41 479.589 41 486" stroke="#B7D1E1" stroke-width="2"/>
<path d="M25 499.863V512.192C40.5 513.178 41 519.589 41 526" stroke="#B7D1E1" stroke-width="2"/>
<path d="M25 417.919V430.248C40.5 431.234 41 437.645 41 444.056" stroke="#B7D1E1" stroke-width="2"/>
<path d="M25 376.975V389.303C40.5 390.29 41 396.7 41 403.111" stroke="#B7D1E1" stroke-width="2"/>
<path d="M25 336.031V348.359C40.5 349.345 41 355.756 41 362.167" stroke="#B7D1E1" stroke-width="2"/>
<path d="M25 316.928V304.6C40.5 303.614 41 297.203 41 290.792" stroke="#B7D1E1" stroke-width="2"/>
<path d="M25 235.067V222.739C40.5 221.752 41 215.342 41 208.931" stroke="#B7D1E1" stroke-width="2"/>
<path d="M25 276.067V263.739C40.5 262.752 41 256.342 41 249.931" stroke="#B7D1E1" stroke-width="2"/>
<path d="M25 194.136V181.808C40.5 180.822 41 174.411 41 168" stroke="#B7D1E1" stroke-width="2"/>
<path d="M25 463.364V475.692C40.5 476.678 41 483.089 41 489.5" stroke="#B7D1E1" stroke-width="2"/>
<path d="M25 503.363V515.692C40.5 516.678 41 523.089 41 529.5" stroke="#B7D1E1" stroke-width="2"/>
<path d="M25 421.419V433.748C40.5 434.734 41 441.145 41 447.556" stroke="#B7D1E1" stroke-width="2"/>
<path d="M25 380.475V392.803C40.5 393.79 41 400.2 41 406.611" stroke="#B7D1E1" stroke-width="2"/>
<path d="M25 339.531V351.859C40.5 352.845 41 359.256 41 365.667" stroke="#B7D1E1" stroke-width="2"/>
<path d="M25 305V315.849C40.5 316.717 41 322.358 41 328" stroke="#B7D1E1" stroke-width="2"/>
<path d="M25 264.656V276.984C40.5 277.97 41 284.381 41 290.792" stroke="#B7D1E1" stroke-width="2"/>
<path d="M25 223.725V236.053C40.5 237.04 41 243.45 41 249.861" stroke="#B7D1E1" stroke-width="2"/>
<path d="M25 182.794V195.123C40.5 196.109 41 202.52 41 208.931" stroke="#B7D1E1" stroke-width="2"/>
<path d="M721 471.206V458.877C705.5 457.891 705 451.48 705 445.069" stroke="#B7D1E1" stroke-width="2"/>
<path d="M721 512.136V499.808C705.5 498.821 705 492.411 705 486" stroke="#B7D1E1" stroke-width="2"/>
<path d="M721 431.262V418.933C705.5 417.947 705 411.536 705 405.125" stroke="#B7D1E1" stroke-width="2"/>
<path d="M721 390.317V377.989C705.5 377.003 705 370.592 705 364.181" stroke="#B7D1E1" stroke-width="2"/>
<path d="M721 348V337.151C705.5 336.283 705 330.642 705 325" stroke="#B7D1E1" stroke-width="2"/>
<path d="M721 313.428V301.1C705.5 300.114 705 293.703 705 287.292" stroke="#B7D1E1" stroke-width="2"/>
<path d="M721 272.498V260.169C705.5 259.183 705 252.772 705 246.361" stroke="#B7D1E1" stroke-width="2"/>
<path d="M721 231.567V219.238C705.5 218.252 705 211.841 705 205.43" stroke="#B7D1E1" stroke-width="2"/>
<path d="M721 190.636V178.308C705.5 177.321 705 170.911 705 164.5" stroke="#B7D1E1" stroke-width="2"/>
<path d="M721 459.864V472.192C705.5 473.178 705 479.589 705 486" stroke="#B7D1E1" stroke-width="2"/>
<path d="M721 500.794V513.122C705.5 514.109 705 520.52 705 526.93" stroke="#B7D1E1" stroke-width="2"/>
<path d="M721 417.919V430.248C705.5 431.234 705 437.645 705 444.056" stroke="#B7D1E1" stroke-width="2"/>
<path d="M721 376.975V389.304C705.5 390.29 705 396.701 705 403.112" stroke="#B7D1E1" stroke-width="2"/>
<path d="M721 336.031V348.359C705.5 349.346 705 355.756 705 362.167" stroke="#B7D1E1" stroke-width="2"/>
<path d="M721 316.928V304.6C705.5 303.614 705 297.203 705 290.792" stroke="#B7D1E1" stroke-width="2"/>
<path d="M721 235.067V222.738C705.5 221.752 705 215.341 705 208.93" stroke="#B7D1E1" stroke-width="2"/>
<path d="M721 276.067V263.739C705.5 262.753 705 256.342 705 249.931" stroke="#B7D1E1" stroke-width="2"/>
<path d="M721 194.136V181.808C705.5 180.821 705 174.411 705 168" stroke="#B7D1E1" stroke-width="2"/>
<path d="M721 463.364V475.692C705.5 476.678 705 483.089 705 489.5" stroke="#B7D1E1" stroke-width="2"/>
<path d="M721 504.294V516.622C705.5 517.609 705 524.02 705 530.43" stroke="#B7D1E1" stroke-width="2"/>
<path d="M721 421.419V433.748C705.5 434.734 705 441.145 705 447.556" stroke="#B7D1E1" stroke-width="2"/>
<path d="M721 380.475V392.804C705.5 393.79 705 400.201 705 406.612" stroke="#B7D1E1" stroke-width="2"/>
<path d="M721 339.531V351.859C705.5 352.846 705 359.256 705 365.667" stroke="#B7D1E1" stroke-width="2"/>
<path d="M721 305V315.849C705.5 316.717 705 322.358 705 328" stroke="#B7D1E1" stroke-width="2"/>
<path d="M721 264.656V276.984C705.5 277.97 705 284.381 705 290.792" stroke="#B7D1E1" stroke-width="2"/>
<path d="M721 223.725V236.053C705.5 237.039 705 243.45 705 249.861" stroke="#B7D1E1" stroke-width="2"/>
<path d="M721 182.794V195.123C705.5 196.109 705 202.52 705 208.931" stroke="#B7D1E1" stroke-width="2"/>
</g>
<g filter="url(#filter1_if_115_608)">
<circle cx="168" cy="58" r="10" fill="white"/>
<circle cx="168" cy="58" r="9.5" stroke="#070C32" stroke-opacity="0.1"/>
</g>
<g filter="url(#filter2_if_115_608)">
<circle cx="226" cy="58" r="10" fill="white"/>
<circle cx="226" cy="58" r="9.5" stroke="#070C32" stroke-opacity="0.1"/>
</g>
<g filter="url(#filter3_if_115_608)">
<circle cx="285" cy="58" r="10" fill="white"/>
<circle cx="285" cy="58" r="9.5" stroke="#070C32" stroke-opacity="0.1"/>
</g>
<g filter="url(#filter4_if_115_608)">
<circle cx="343" cy="58" r="10" fill="white"/>
<circle cx="343" cy="58" r="9.5" stroke="#070C32" stroke-opacity="0.1"/>
</g>
<g filter="url(#filter5_if_115_608)">
<circle cx="402" cy="58" r="10" fill="white"/>
<circle cx="402" cy="58" r="9.5" stroke="#070C32" stroke-opacity="0.1"/>
</g>
<g filter="url(#filter6_if_115_608)">
<circle cx="462" cy="58" r="10" fill="white"/>
<circle cx="462" cy="58" r="9.5" stroke="#070C32" stroke-opacity="0.1"/>
</g>
<g filter="url(#filter7_if_115_608)">
<circle cx="520" cy="58" r="10" fill="white"/>
<circle cx="520" cy="58" r="9.5" stroke="#070C32" stroke-opacity="0.1"/>
</g>
<g filter="url(#filter8_if_115_608)">
<circle cx="578" cy="58" r="10" fill="white"/>
<circle cx="578" cy="58" r="9.5" stroke="#070C32" stroke-opacity="0.1"/>
</g>
<defs>
<filter id="filter0_f_115_608" x="23" y="161.5" width="700" height="370.5" filterUnits="userSpaceOnUse" color-interpolation-filters="sRGB">
<feFlood flood-opacity="0" result="BackgroundImageFix"/>
<feBlend mode="normal" in="SourceGraphic" in2="BackgroundImageFix" result="shape"/>
<feGaussianBlur stdDeviation="0.5" result="effect1_foregroundBlur_115_608"/>
</filter>
<filter id="filter1_if_115_608" x="157" y="47" width="23" height="25" filterUnits="userSpaceOnUse" color-interpolation-filters="sRGB">
<feFlood flood-opacity="0" result="BackgroundImageFix"/>
<feBlend mode="normal" in="SourceGraphic" in2="BackgroundImageFix" result="shape"/>
<feColorMatrix in="SourceAlpha" type="matrix" values="0 0 0 0 0 0 0 0 0 0 0 0 0 0 0 0 0 0 127 0" result="hardAlpha"/>
<feOffset dx="2" dy="4"/>
<feGaussianBlur stdDeviation="2"/>
<feComposite in2="hardAlpha" operator="arithmetic" k2="-1" k3="1"/>
<feColorMatrix type="matrix" values="0 0 0 0 0 0 0 0 0 0 0 0 0 0 0 0 0 0 0.25 0"/>
<feBlend mode="normal" in2="shape" result="effect1_innerShadow_115_608"/>
<feGaussianBlur stdDeviation="0.5" result="effect2_foregroundBlur_115_608"/>
</filter>
<filter id="filter2_if_115_608" x="215" y="47" width="23" height="25" filterUnits="userSpaceOnUse" color-interpolation-filters="sRGB">
<feFlood flood-opacity="0" result="BackgroundImageFix"/>
<feBlend mode="normal" in="SourceGraphic" in2="BackgroundImageFix" result="shape"/>
<feColorMatrix in="SourceAlpha" type="matrix" values="0 0 0 0 0 0 0 0 0 0 0 0 0 0 0 0 0 0 127 0" result="hardAlpha"/>
<feOffset dx="2" dy="4"/>
<feGaussianBlur stdDeviation="2"/>
<feComposite in2="hardAlpha" operator="arithmetic" k2="-1" k3="1"/>
<feColorMatrix type="matrix" values="0 0 0 0 0 0 0 0 0 0 0 0 0 0 0 0 0 0 0.25 0"/>
<feBlend mode="normal" in2="shape" result="effect1_innerShadow_115_608"/>
<feGaussianBlur stdDeviation="0.5" result="effect2_foregroundBlur_115_608"/>
</filter>
<filter id="filter3_if_115_608" x="274" y="47" width="23" height="25" filterUnits="userSpaceOnUse" color-interpolation-filters="sRGB">
<feFlood flood-opacity="0" result="BackgroundImageFix"/>
<feBlend mode="normal" in="SourceGraphic" in2="BackgroundImageFix" result="shape"/>
<feColorMatrix in="SourceAlpha" type="matrix" values="0 0 0 0 0 0 0 0 0 0 0 0 0 0 0 0 0 0 127 0" result="hardAlpha"/>
<feOffset dx="2" dy="4"/>
<feGaussianBlur stdDeviation="2"/>
<feComposite in2="hardAlpha" operator="arithmetic" k2="-1" k3="1"/>
<feColorMatrix type="matrix" values="0 0 0 0 0 0 0 0 0 0 0 0 0 0 0 0 0 0 0.25 0"/>
<feBlend mode="normal" in2="shape" result="effect1_innerShadow_115_608"/>
<feGaussianBlur stdDeviation="0.5" result="effect2_foregroundBlur_115_608"/>
</filter>
<filter id="filter4_if_115_608" x="332" y="47" width="23" height="25" filterUnits="userSpaceOnUse" color-interpolation-filters="sRGB">
<feFlood flood-opacity="0" result="BackgroundImageFix"/>
<feBlend mode="normal" in="SourceGraphic" in2="BackgroundImageFix" result="shape"/>
<feColorMatrix in="SourceAlpha" type="matrix" values="0 0 0 0 0 0 0 0 0 0 0 0 0 0 0 0 0 0 127 0" result="hardAlpha"/>
<feOffset dx="2" dy="4"/>
<feGaussianBlur stdDeviation="2"/>
<feComposite in2="hardAlpha" operator="arithmetic" k2="-1" k3="1"/>
<feColorMatrix type="matrix" values="0 0 0 0 0 0 0 0 0 0 0 0 0 0 0 0 0 0 0.25 0"/>
<feBlend mode="normal" in2="shape" result="effect1_innerShadow_115_608"/>
<feGaussianBlur stdDeviation="0.5" result="effect2_foregroundBlur_115_608"/>
</filter>
<filter id="filter5_if_115_608" x="391" y="47" width="23" height="25" filterUnits="userSpaceOnUse" color-interpolation-filters="sRGB">
<feFlood flood-opacity="0" result="BackgroundImageFix"/>
<feBlend mode="normal" in="SourceGraphic" in2="BackgroundImageFix" result="shape"/>
<feColorMatrix in="SourceAlpha" type="matrix" values="0 0 0 0 0 0 0 0 0 0 0 0 0 0 0 0 0 0 127 0" result="hardAlpha"/>
<feOffset dx="2" dy="4"/>
<feGaussianBlur stdDeviation="2"/>
<feComposite in2="hardAlpha" operator="arithmetic" k2="-1" k3="1"/>
<feColorMatrix type="matrix" values="0 0 0 0 0 0 0 0 0 0 0 0 0 0 0 0 0 0 0.25 0"/>
<feBlend mode="normal" in2="shape" result="effect1_innerShadow_115_608"/>
<feGaussianBlur stdDeviation="0.5" result="effect2_foregroundBlur_115_608"/>
</filter>
<filter id="filter6_if_115_608" x="451" y="47" width="23" height="25" filterUnits="userSpaceOnUse" color-interpolation-filters="sRGB">
<feFlood flood-opacity="0" result="BackgroundImageFix"/>
<feBlend mode="normal" in="SourceGraphic" in2="BackgroundImageFix" result="shape"/>
<feColorMatrix in="SourceAlpha" type="matrix" values="0 0 0 0 0 0 0 0 0 0 0 0 0 0 0 0 0 0 127 0" result="hardAlpha"/>
<feOffset dx="2" dy="4"/>
<feGaussianBlur stdDeviation="2"/>
<feComposite in2="hardAlpha" operator="arithmetic" k2="-1" k3="1"/>
<feColorMatrix type="matrix" values="0 0 0 0 0 0 0 0 0 0 0 0 0 0 0 0 0 0 0.25 0"/>
<feBlend mode="normal" in2="shape" result="effect1_innerShadow_115_608"/>
<feGaussianBlur stdDeviation="0.5" result="effect2_foregroundBlur_115_608"/>
</filter>
<filter id="filter7_if_115_608" x="509" y="47" width="23" height="25" filterUnits="userSpaceOnUse" color-interpolation-filters="sRGB">
<feFlood flood-opacity="0" result="BackgroundImageFix"/>
<feBlend mode="normal" in="SourceGraphic" in2="BackgroundImageFix" result="shape"/>
<feColorMatrix in="SourceAlpha" type="matrix" values="0 0 0 0 0 0 0 0 0 0 0 0 0 0 0 0 0 0 127 0" result="hardAlpha"/>
<feOffset dx="2" dy="4"/>
<feGaussianBlur stdDeviation="2"/>
<feComposite in2="hardAlpha" operator="arithmetic" k2="-1" k3="1"/>
<feColorMatrix type="matrix" values="0 0 0 0 0 0 0 0 0 0 0 0 0 0 0 0 0 0 0.25 0"/>
<feBlend mode="normal" in2="shape" result="effect1_innerShadow_115_608"/>
<feGaussianBlur stdDeviation="0.5" result="effect2_foregroundBlur_115_608"/>
</filter>
<filter id="filter8_if_115_608" x="567" y="47" width="23" height="25" filterUnits="userSpaceOnUse" color-interpolation-filters="sRGB">
<feFlood flood-opacity="0" result="BackgroundImageFix"/>
<feBlend mode="normal" in="SourceGraphic" in2="BackgroundImageFix" result="shape"/>
<feColorMatrix in="SourceAlpha" type="matrix" values="0 0 0 0 0 0 0 0 0 0 0 0 0 0 0 0 0 0 127 0" result="hardAlpha"/>
<feOffset dx="2" dy="4"/>
<feGaussianBlur stdDeviation="2"/>
<feComposite in2="hardAlpha" operator="arithmetic" k2="-1" k3="1"/>
<feColorMatrix type="matrix" values="0 0 0 0 0 0 0 0 0 0 0 0 0 0 0 0 0 0 0.25 0"/>
<feBlend mode="normal" in2="shape" result="effect1_innerShadow_115_608"/>
<feGaussianBlur stdDeviation="0.5" result="effect2_foregroundBlur_115_608"/>
</filter>
</defs>
</svg>
