<svg width="430" height="908" viewBox="0 0 430 908" fill="none" xmlns="http://www.w3.org/2000/svg">
<line x1="-78.2617" y1="47.5" x2="508" y2="47.5" stroke="#D9DFE4"/>
<line x1="-78.2617" y1="47" x2="508" y2="47" stroke="#D9DFE4" stroke-width="2"/>
<line x1="-78.2617" y1="71" x2="508" y2="71" stroke="#D9DFE4" stroke-width="2"/>
<line x1="-78.2617" y1="97" x2="508" y2="97" stroke="#D9DFE4" stroke-width="2"/>
<line x1="-78.2617" y1="120" x2="508" y2="120" stroke="#D9DFE4" stroke-width="2"/>
<line x1="-78.2617" y1="144" x2="508" y2="144" stroke="#D9DFE4" stroke-width="2"/>
<line x1="-75.5352" y1="167" x2="508" y2="167" stroke="#D9DFE4" stroke-width="2"/>
<line x1="-78.2617" y1="189" x2="508" y2="189" stroke="#D9DFE4" stroke-width="2"/>
<line x1="-78.2617" y1="212" x2="508" y2="212" stroke="#D9DFE4" stroke-width="2"/>
<line x1="-78.2617" y1="236" x2="508" y2="236" stroke="#D9DFE4" stroke-width="2"/>
<line x1="-78.2617" y1="260" x2="508" y2="260" stroke="#D9DFE4" stroke-width="2"/>
<line x1="-78.2617" y1="285" x2="508" y2="285" stroke="#D9DFE4" stroke-width="2"/>
<line x1="-78.2617" y1="309" x2="508" y2="309" stroke="#D9DFE4" stroke-width="2"/>
<line x1="-78.2617" y1="513" x2="508" y2="513" stroke="#D9DFE4" stroke-width="2"/>
<line x1="-78.2617" y1="332" x2="508" y2="332" stroke="#D9DFE4" stroke-width="2"/>
<line x1="-78.2617" y1="536" x2="508" y2="536" stroke="#D9DFE4" stroke-width="2"/>
<line x1="-78.2617" y1="355" x2="508" y2="355" stroke="#D9DFE4" stroke-width="2"/>
<line x1="-78.2617" y1="559" x2="508" y2="559" stroke="#D9DFE4" stroke-width="2"/>
<line x1="-78.2617" y1="378" x2="508" y2="378" stroke="#D9DFE4" stroke-width="2"/>
<line x1="-78.2617" y1="582" x2="508" y2="582" stroke="#D9DFE4" stroke-width="2"/>
<line x1="-78.2617" y1="401" x2="508" y2="401" stroke="#D9DFE4" stroke-width="2"/>
<line x1="-78.2617" y1="605" x2="508" y2="605" stroke="#D9DFE4" stroke-width="2"/>
<line x1="-78.2617" y1="424" x2="508" y2="424" stroke="#D9DFE4" stroke-width="2"/>
<line x1="-78.2617" y1="628" x2="508" y2="628" stroke="#D9DFE4" stroke-width="2"/>
<line x1="-78.2617" y1="447" x2="508" y2="447" stroke="#D9DFE4" stroke-width="2"/>
<line x1="-78.2617" y1="651" x2="508" y2="651" stroke="#D9DFE4" stroke-width="2"/>
<line x1="-78.2617" y1="469" x2="508" y2="469" stroke="#D9DFE4" stroke-width="2"/>
<line x1="-78.2617" y1="717.5" x2="508" y2="717.5" stroke="#D9DFE4" stroke-width="2"/>
<line x1="-78.2617" y1="784.5" x2="508" y2="784.5" stroke="#D9DFE4" stroke-width="2"/>
<line x1="-78.2617" y1="829" x2="508" y2="829" stroke="#D9DFE4" stroke-width="2"/>
<line x1="-78.2617" y1="673" x2="508" y2="673" stroke="#D9DFE4" stroke-width="2"/>
<line x1="-78.2617" y1="491" x2="508" y2="491" stroke="#D9DFE4" stroke-width="2"/>
<line x1="-78.2617" y1="739.5" x2="508" y2="739.5" stroke="#D9DFE4" stroke-width="2"/>
<line x1="-78.2617" y1="806.5" x2="508" y2="806.5" stroke="#D9DFE4" stroke-width="2"/>
<line x1="-78.2617" y1="851" x2="508" y2="851" stroke="#D9DFE4" stroke-width="2"/>
<line x1="-73" y1="876" x2="513.262" y2="876" stroke="#D9DFE4" stroke-width="2"/>
<line x1="-78.2617" y1="695" x2="508" y2="695" stroke="#D9DFE4" stroke-width="2"/>
<line x1="-78.2617" y1="762" x2="508" y2="762" stroke="#D9DFE4" stroke-width="2"/>
<line x1="-78.2617" y1="25" x2="508" y2="25" stroke="#D9DFE4" stroke-width="2"/>
<line x1="-78.2617" y1="1" x2="508" y2="1" stroke="#D9DFE4" stroke-width="2"/>
<g filter="url(#filter0_f_615_1111)">
<path d="M9 198H20.5C21.5 213.5 28 214 34.5 214" stroke="#B7D1E1" stroke-width="2"/>
<path d="M49.5 198H62C63 213.5 69.5 214 76 214" stroke="#B7D1E1" stroke-width="2"/>
<path d="M89 198H101.5C102.5 213.5 109 214 115.5 214" stroke="#B7D1E1" stroke-width="2"/>
<path d="M130.5 198H143C144 213.5 150.5 214 157 214" stroke="#B7D1E1" stroke-width="2"/>
<path d="M171 198H183.5C184.5 213.5 191 214 197.5 214" stroke="#B7D1E1" stroke-width="2"/>
<path d="M211.5 198H224C225 213.5 231.5 214 238 214" stroke="#B7D1E1" stroke-width="2"/>
<path d="M252 198H264.5C265.5 213.5 272 214 278.5 214" stroke="#B7D1E1" stroke-width="2"/>
<path d="M292.5 198H305C306 213.5 312.5 214 319 214" stroke="#B7D1E1" stroke-width="2"/>
<path d="M333 198H345.5C346.5 213.5 353 214 359.5 214" stroke="#B7D1E1" stroke-width="2"/>
<path d="M373.5 198H386C387 213.5 393.5 214 400 214" stroke="#B7D1E1" stroke-width="2"/>
<path d="M422 198.5H425.774C426.075 214 428.038 214.5 430 214.5" stroke="#B7D1E1" stroke-width="2"/>
<path d="M20.5 198H9C8 213.5 1.5 214 -5 214" stroke="#B7D1E1" stroke-width="2"/>
<path d="M61 198H48.5C47.5 213.5 41 214 34.5 214" stroke="#B7D1E1" stroke-width="2"/>
<path d="M100.5 198H88C87 213.5 80.5 214 74 214" stroke="#B7D1E1" stroke-width="2"/>
<path d="M142 198H129.5C128.5 213.5 122 214 115.5 214" stroke="#B7D1E1" stroke-width="2"/>
<path d="M182.5 198H170C169 213.5 162.5 214 156 214" stroke="#B7D1E1" stroke-width="2"/>
<path d="M223 198H210.5C209.5 213.5 203 214 196.5 214" stroke="#B7D1E1" stroke-width="2"/>
<path d="M263.5 198H251C250 213.5 243.5 214 237 214" stroke="#B7D1E1" stroke-width="2"/>
<path d="M304 198H291.5C290.5 213.5 284 214 277.5 214" stroke="#B7D1E1" stroke-width="2"/>
<path d="M344.5 198H332C331 213.5 324.5 214 318 214" stroke="#B7D1E1" stroke-width="2"/>
<path d="M385 198H372.5C371.5 213.5 365 214 358.5 214" stroke="#B7D1E1" stroke-width="2"/>
<path d="M426.5 198H414C413 213.5 406.5 214 400 214" stroke="#B7D1E1" stroke-width="2"/>
<path d="M13.4824 906H24.5574C25.5205 890.5 31.7803 890 38.0401 890" stroke="#B7D1E1" stroke-width="2"/>
<path d="M52.4863 906H64.5244C65.4874 890.5 71.7472 890 78.007 890" stroke="#B7D1E1" stroke-width="2"/>
<path d="M90.5264 906H102.564C103.527 890.5 109.787 890 116.047 890" stroke="#B7D1E1" stroke-width="2"/>
<path d="M130.493 906H142.531C143.494 890.5 149.754 890 156.014 890" stroke="#B7D1E1" stroke-width="2"/>
<path d="M169.497 906H181.535C182.498 890.5 188.758 890 195.018 890" stroke="#B7D1E1" stroke-width="2"/>
<path d="M208.5 906H220.538C221.501 890.5 227.761 890 234.021 890" stroke="#B7D1E1" stroke-width="2"/>
<path d="M247.503 906H259.541C260.504 890.5 266.764 890 273.024 890" stroke="#B7D1E1" stroke-width="2"/>
<path d="M286.507 906H298.545C299.508 890.5 305.768 890 312.028 890" stroke="#B7D1E1" stroke-width="2"/>
<path d="M325.51 906H337.548C338.511 890.5 344.771 890 351.03 890" stroke="#B7D1E1" stroke-width="2"/>
<path d="M364.514 906H376.552C377.515 890.5 383.775 890 390.034 890" stroke="#B7D1E1" stroke-width="2"/>
<path d="M404.479 906H416.518C417.481 890.5 423.74 890 430 890" stroke="#B7D1E1" stroke-width="2"/>
<path d="M24.5576 906H13.4826C12.5195 890.5 6.25975 890 -5.31375e-05 890" stroke="#B7D1E1" stroke-width="2"/>
<path d="M63.5615 906H51.5234C50.5604 890.5 44.3006 890 38.0408 890" stroke="#B7D1E1" stroke-width="2"/>
<path d="M101.602 906H89.5635C88.6004 890.5 82.3406 890 76.0808 890" stroke="#B7D1E1" stroke-width="2"/>
<path d="M141.568 906H129.53C128.567 890.5 122.307 890 116.048 890" stroke="#B7D1E1" stroke-width="2"/>
<path d="M180.571 906H168.533C167.57 890.5 161.31 890 155.051 890" stroke="#B7D1E1" stroke-width="2"/>
<path d="M219.574 906H207.536C206.573 890.5 200.313 890 194.054 890" stroke="#B7D1E1" stroke-width="2"/>
<path d="M258.578 906H246.54C245.577 890.5 239.317 890 233.057 890" stroke="#B7D1E1" stroke-width="2"/>
<path d="M297.581 906H285.543C284.58 890.5 278.32 890 272.06 890" stroke="#B7D1E1" stroke-width="2"/>
<path d="M336.585 906H324.547C323.584 890.5 317.324 890 311.064 890" stroke="#B7D1E1" stroke-width="2"/>
<path d="M375.589 906H363.551C362.588 890.5 356.328 890 350.068 890" stroke="#B7D1E1" stroke-width="2"/>
<path d="M415.555 906H403.517C402.554 890.5 396.294 890 390.034 890" stroke="#B7D1E1" stroke-width="2"/>
</g>
<g filter="url(#filter1_if_615_1111)">
<circle cx="71" cy="48" r="10" fill="white"/>
<circle cx="71" cy="48" r="9.5" stroke="#070C32" stroke-opacity="0.1"/>
</g>
<g filter="url(#filter2_if_615_1111)">
<circle cx="130" cy="48" r="10" fill="white"/>
<circle cx="130" cy="48" r="9.5" stroke="#070C32" stroke-opacity="0.1"/>
</g>
<g filter="url(#filter3_if_615_1111)">
<circle cx="188" cy="48" r="10" fill="white"/>
<circle cx="188" cy="48" r="9.5" stroke="#070C32" stroke-opacity="0.1"/>
</g>
<g filter="url(#filter4_if_615_1111)">
<circle cx="247" cy="48" r="10" fill="white"/>
<circle cx="247" cy="48" r="9.5" stroke="#070C32" stroke-opacity="0.1"/>
</g>
<g filter="url(#filter5_if_615_1111)">
<circle cx="307" cy="48" r="10" fill="white"/>
<circle cx="307" cy="48" r="9.5" stroke="#070C32" stroke-opacity="0.1"/>
</g>
<g filter="url(#filter6_if_615_1111)">
<circle cx="365" cy="48" r="10" fill="white"/>
<circle cx="365" cy="48" r="9.5" stroke="#070C32" stroke-opacity="0.1"/>
</g>
<defs>
<filter id="filter0_f_615_1111" x="-6" y="196" width="437" height="712" filterUnits="userSpaceOnUse" color-interpolation-filters="sRGB">
<feFlood flood-opacity="0" result="BackgroundImageFix"/>
<feBlend mode="normal" in="SourceGraphic" in2="BackgroundImageFix" result="shape"/>
<feGaussianBlur stdDeviation="0.5" result="effect1_foregroundBlur_615_1111"/>
</filter>
<filter id="filter1_if_615_1111" x="60" y="37" width="23" height="25" filterUnits="userSpaceOnUse" color-interpolation-filters="sRGB">
<feFlood flood-opacity="0" result="BackgroundImageFix"/>
<feBlend mode="normal" in="SourceGraphic" in2="BackgroundImageFix" result="shape"/>
<feColorMatrix in="SourceAlpha" type="matrix" values="0 0 0 0 0 0 0 0 0 0 0 0 0 0 0 0 0 0 127 0" result="hardAlpha"/>
<feOffset dx="2" dy="4"/>
<feGaussianBlur stdDeviation="2"/>
<feComposite in2="hardAlpha" operator="arithmetic" k2="-1" k3="1"/>
<feColorMatrix type="matrix" values="0 0 0 0 0 0 0 0 0 0 0 0 0 0 0 0 0 0 0.25 0"/>
<feBlend mode="normal" in2="shape" result="effect1_innerShadow_615_1111"/>
<feGaussianBlur stdDeviation="0.5" result="effect2_foregroundBlur_615_1111"/>
</filter>
<filter id="filter2_if_615_1111" x="119" y="37" width="23" height="25" filterUnits="userSpaceOnUse" color-interpolation-filters="sRGB">
<feFlood flood-opacity="0" result="BackgroundImageFix"/>
<feBlend mode="normal" in="SourceGraphic" in2="BackgroundImageFix" result="shape"/>
<feColorMatrix in="SourceAlpha" type="matrix" values="0 0 0 0 0 0 0 0 0 0 0 0 0 0 0 0 0 0 127 0" result="hardAlpha"/>
<feOffset dx="2" dy="4"/>
<feGaussianBlur stdDeviation="2"/>
<feComposite in2="hardAlpha" operator="arithmetic" k2="-1" k3="1"/>
<feColorMatrix type="matrix" values="0 0 0 0 0 0 0 0 0 0 0 0 0 0 0 0 0 0 0.25 0"/>
<feBlend mode="normal" in2="shape" result="effect1_innerShadow_615_1111"/>
<feGaussianBlur stdDeviation="0.5" result="effect2_foregroundBlur_615_1111"/>
</filter>
<filter id="filter3_if_615_1111" x="177" y="37" width="23" height="25" filterUnits="userSpaceOnUse" color-interpolation-filters="sRGB">
<feFlood flood-opacity="0" result="BackgroundImageFix"/>
<feBlend mode="normal" in="SourceGraphic" in2="BackgroundImageFix" result="shape"/>
<feColorMatrix in="SourceAlpha" type="matrix" values="0 0 0 0 0 0 0 0 0 0 0 0 0 0 0 0 0 0 127 0" result="hardAlpha"/>
<feOffset dx="2" dy="4"/>
<feGaussianBlur stdDeviation="2"/>
<feComposite in2="hardAlpha" operator="arithmetic" k2="-1" k3="1"/>
<feColorMatrix type="matrix" values="0 0 0 0 0 0 0 0 0 0 0 0 0 0 0 0 0 0 0.25 0"/>
<feBlend mode="normal" in2="shape" result="effect1_innerShadow_615_1111"/>
<feGaussianBlur stdDeviation="0.5" result="effect2_foregroundBlur_615_1111"/>
</filter>
<filter id="filter4_if_615_1111" x="236" y="37" width="23" height="25" filterUnits="userSpaceOnUse" color-interpolation-filters="sRGB">
<feFlood flood-opacity="0" result="BackgroundImageFix"/>
<feBlend mode="normal" in="SourceGraphic" in2="BackgroundImageFix" result="shape"/>
<feColorMatrix in="SourceAlpha" type="matrix" values="0 0 0 0 0 0 0 0 0 0 0 0 0 0 0 0 0 0 127 0" result="hardAlpha"/>
<feOffset dx="2" dy="4"/>
<feGaussianBlur stdDeviation="2"/>
<feComposite in2="hardAlpha" operator="arithmetic" k2="-1" k3="1"/>
<feColorMatrix type="matrix" values="0 0 0 0 0 0 0 0 0 0 0 0 0 0 0 0 0 0 0.25 0"/>
<feBlend mode="normal" in2="shape" result="effect1_innerShadow_615_1111"/>
<feGaussianBlur stdDeviation="0.5" result="effect2_foregroundBlur_615_1111"/>
</filter>
<filter id="filter5_if_615_1111" x="296" y="37" width="23" height="25" filterUnits="userSpaceOnUse" color-interpolation-filters="sRGB">
<feFlood flood-opacity="0" result="BackgroundImageFix"/>
<feBlend mode="normal" in="SourceGraphic" in2="BackgroundImageFix" result="shape"/>
<feColorMatrix in="SourceAlpha" type="matrix" values="0 0 0 0 0 0 0 0 0 0 0 0 0 0 0 0 0 0 127 0" result="hardAlpha"/>
<feOffset dx="2" dy="4"/>
<feGaussianBlur stdDeviation="2"/>
<feComposite in2="hardAlpha" operator="arithmetic" k2="-1" k3="1"/>
<feColorMatrix type="matrix" values="0 0 0 0 0 0 0 0 0 0 0 0 0 0 0 0 0 0 0.25 0"/>
<feBlend mode="normal" in2="shape" result="effect1_innerShadow_615_1111"/>
<feGaussianBlur stdDeviation="0.5" result="effect2_foregroundBlur_615_1111"/>
</filter>
<filter id="filter6_if_615_1111" x="354" y="37" width="23" height="25" filterUnits="userSpaceOnUse" color-interpolation-filters="sRGB">
<feFlood flood-opacity="0" result="BackgroundImageFix"/>
<feBlend mode="normal" in="SourceGraphic" in2="BackgroundImageFix" result="shape"/>
<feColorMatrix in="SourceAlpha" type="matrix" values="0 0 0 0 0 0 0 0 0 0 0 0 0 0 0 0 0 0 127 0" result="hardAlpha"/>
<feOffset dx="2" dy="4"/>
<feGaussianBlur stdDeviation="2"/>
<feComposite in2="hardAlpha" operator="arithmetic" k2="-1" k3="1"/>
<feColorMatrix type="matrix" values="0 0 0 0 0 0 0 0 0 0 0 0 0 0 0 0 0 0 0.25 0"/>
<feBlend mode="normal" in2="shape" result="effect1_innerShadow_615_1111"/>
<feGaussianBlur stdDeviation="0.5" result="effect2_foregroundBlur_615_1111"/>
</filter>
</defs>
</svg>
