<svg width="700" height="1195" viewBox="0 0 700 1195" fill="none" xmlns="http://www.w3.org/2000/svg">
<g filter="url(#filter0_f_116_692)">
<path d="M17.5 2H30C31 17.5 37.5 18 44 18" stroke="#B7D1E1" stroke-width="2"/>
<path d="M59 2H71.5C72.5 17.5 79 18 85.5 18" stroke="#B7D1E1" stroke-width="2"/>
<path d="M100.5 2H113C114 17.5 120.5 18 127 18" stroke="#B7D1E1" stroke-width="2"/>
<path d="M141 2H152.5C153.5 17.5 160 18 166.5 18" stroke="#B7D1E1" stroke-width="2"/>
<path d="M181.5 2H194C195 17.5 201.5 18 208 18" stroke="#B7D1E1" stroke-width="2"/>
<path d="M221 2H233.5C234.5 17.5 241 18 247.5 18" stroke="#B7D1E1" stroke-width="2"/>
<path d="M262.5 2H275C276 17.5 282.5 18 289 18" stroke="#B7D1E1" stroke-width="2"/>
<path d="M303 2H315.5C316.5 17.5 323 18 329.5 18" stroke="#B7D1E1" stroke-width="2"/>
<path d="M343.5 2H356C357 17.5 363.5 18 370 18" stroke="#B7D1E1" stroke-width="2"/>
<path d="M384 2H396.5C397.5 17.5 404 18 410.5 18" stroke="#B7D1E1" stroke-width="2"/>
<path d="M424.5 2H437C438 17.5 444.5 18 451 18" stroke="#B7D1E1" stroke-width="2"/>
<path d="M465 2H477.5C478.5 17.5 485 18 491.5 18" stroke="#B7D1E1" stroke-width="2"/>
<path d="M505.5 2H518C519 17.5 525.5 18 532 18" stroke="#B7D1E1" stroke-width="2"/>
<path d="M547 2H559.5C560.5 17.5 567 18 573.5 18" stroke="#B7D1E1" stroke-width="2"/>
<path d="M588.5 2H601C602 17.5 608.5 18 615 18" stroke="#B7D1E1" stroke-width="2"/>
<path d="M630 2H642.5C643.5 17.5 650 18 656.5 18" stroke="#B7D1E1" stroke-width="2"/>
<path d="M70.5 2H58C57 17.5 50.5 18 44 18" stroke="#B7D1E1" stroke-width="2"/>
<path d="M112 2H99.5C98.5 17.5 92 18 85.5 18" stroke="#B7D1E1" stroke-width="2"/>
<path d="M152.5 2H141C140 17.5 133.5 18 127 18" stroke="#B7D1E1" stroke-width="2"/>
<path d="M193 2H180.5C179.5 17.5 173 18 166.5 18" stroke="#B7D1E1" stroke-width="2"/>
<path d="M232.5 2H220C219 17.5 212.5 18 206 18" stroke="#B7D1E1" stroke-width="2"/>
<path d="M274 2H261.5C260.5 17.5 254 18 247.5 18" stroke="#B7D1E1" stroke-width="2"/>
<path d="M314.5 2H302C301 17.5 294.5 18 288 18" stroke="#B7D1E1" stroke-width="2"/>
<path d="M355 2H342.5C341.5 17.5 335 18 328.5 18" stroke="#B7D1E1" stroke-width="2"/>
<path d="M395.5 2H383C382 17.5 375.5 18 369 18" stroke="#B7D1E1" stroke-width="2"/>
<path d="M436 2H423.5C422.5 17.5 416 18 409.5 18" stroke="#B7D1E1" stroke-width="2"/>
<path d="M476.5 2H464C463 17.5 456.5 18 450 18" stroke="#B7D1E1" stroke-width="2"/>
<path d="M517 2H504.5C503.5 17.5 497 18 490.5 18" stroke="#B7D1E1" stroke-width="2"/>
<path d="M558.5 2H546C545 17.5 538.5 18 532 18" stroke="#B7D1E1" stroke-width="2"/>
<path d="M600 2H587.5C586.5 17.5 580 18 573.5 18" stroke="#B7D1E1" stroke-width="2"/>
<path d="M641.5 2H629C628 17.5 621.5 18 615 18" stroke="#B7D1E1" stroke-width="2"/>
<path d="M683 2H670.5C669.5 17.5 663 18 656.5 18" stroke="#B7D1E1" stroke-width="2"/>
<path d="M17.5 1193H30C31 1177.5 37.5 1177 44 1177" stroke="#B7D1E1" stroke-width="2"/>
<path d="M59 1193H71.5C72.5 1177.5 79 1177 85.5 1177" stroke="#B7D1E1" stroke-width="2"/>
<path d="M100.5 1193H113C114 1177.5 120.5 1177 127 1177" stroke="#B7D1E1" stroke-width="2"/>
<path d="M141 1193H152.5C153.5 1177.5 160 1177 166.5 1177" stroke="#B7D1E1" stroke-width="2"/>
<path d="M181.5 1193H194C195 1177.5 201.5 1177 208 1177" stroke="#B7D1E1" stroke-width="2"/>
<path d="M221 1193H233.5C234.5 1177.5 241 1177 247.5 1177" stroke="#B7D1E1" stroke-width="2"/>
<path d="M262.5 1193H275C276 1177.5 282.5 1177 289 1177" stroke="#B7D1E1" stroke-width="2"/>
<path d="M303 1193H315.5C316.5 1177.5 323 1177 329.5 1177" stroke="#B7D1E1" stroke-width="2"/>
<path d="M343.5 1193H356C357 1177.5 363.5 1177 370 1177" stroke="#B7D1E1" stroke-width="2"/>
<path d="M384 1193H396.5C397.5 1177.5 404 1177 410.5 1177" stroke="#B7D1E1" stroke-width="2"/>
<path d="M424.5 1193H437C438 1177.5 444.5 1177 451 1177" stroke="#B7D1E1" stroke-width="2"/>
<path d="M465 1193H477.5C478.5 1177.5 485 1177 491.5 1177" stroke="#B7D1E1" stroke-width="2"/>
<path d="M505.5 1193H518C519 1177.5 525.5 1177 532 1177" stroke="#B7D1E1" stroke-width="2"/>
<path d="M547 1193H559.5C560.5 1177.5 567 1177 573.5 1177" stroke="#B7D1E1" stroke-width="2"/>
<path d="M588.5 1193H601C602 1177.5 608.5 1177 615 1177" stroke="#B7D1E1" stroke-width="2"/>
<path d="M630 1193H642.5C643.5 1177.5 650 1177 656.5 1177" stroke="#B7D1E1" stroke-width="2"/>
<path d="M70.5 1193H58C57 1177.5 50.5 1177 44 1177" stroke="#B7D1E1" stroke-width="2"/>
<path d="M112 1193H99.5C98.5 1177.5 92 1177 85.5 1177" stroke="#B7D1E1" stroke-width="2"/>
<path d="M152.5 1193H141C140 1177.5 133.5 1177 127 1177" stroke="#B7D1E1" stroke-width="2"/>
<path d="M193 1193H180.5C179.5 1177.5 173 1177 166.5 1177" stroke="#B7D1E1" stroke-width="2"/>
<path d="M232.5 1193H220C219 1177.5 212.5 1177 206 1177" stroke="#B7D1E1" stroke-width="2"/>
<path d="M274 1193H261.5C260.5 1177.5 254 1177 247.5 1177" stroke="#B7D1E1" stroke-width="2"/>
<path d="M314.5 1193H302C301 1177.5 294.5 1177 288 1177" stroke="#B7D1E1" stroke-width="2"/>
<path d="M355 1193H342.5C341.5 1177.5 335 1177 328.5 1177" stroke="#B7D1E1" stroke-width="2"/>
<path d="M395.5 1193H383C382 1177.5 375.5 1177 369 1177" stroke="#B7D1E1" stroke-width="2"/>
<path d="M436 1193H423.5C422.5 1177.5 416 1177 409.5 1177" stroke="#B7D1E1" stroke-width="2"/>
<path d="M476.5 1193H464C463 1177.5 456.5 1177 450 1177" stroke="#B7D1E1" stroke-width="2"/>
<path d="M517 1193H504.5C503.5 1177.5 497 1177 490.5 1177" stroke="#B7D1E1" stroke-width="2"/>
<path d="M558.5 1193H546C545 1177.5 538.5 1177 532 1177" stroke="#B7D1E1" stroke-width="2"/>
<path d="M600 1193H587.5C586.5 1177.5 580 1177 573.5 1177" stroke="#B7D1E1" stroke-width="2"/>
<path d="M641.5 1193H629C628 1177.5 621.5 1177 615 1177" stroke="#B7D1E1" stroke-width="2"/>
<path d="M683 1193H670.5C669.5 1177.5 663 1177 656.5 1177" stroke="#B7D1E1" stroke-width="2"/>
<path d="M2 309.706L2 297.377C17.5 296.391 18 289.98 18 283.569" stroke="#B7D1E1" stroke-width="2"/>
<path d="M2 269.761L2 257.433C17.5 256.447 18 250.036 18 243.625" stroke="#B7D1E1" stroke-width="2"/>
<path d="M2 228.817L2 216.489C17.5 215.502 18 209.092 18 202.681" stroke="#B7D1E1" stroke-width="2"/>
<path d="M2 186.5L2 175.651C17.5 174.783 18 169.142 18 163.5" stroke="#B7D1E1" stroke-width="2"/>
<path d="M2 151.928L2 139.6C17.5 138.614 18 132.203 18 125.792" stroke="#B7D1E1" stroke-width="2"/>
<path d="M2 110.998L2 98.6693C17.5 97.683 18 91.2722 18 84.8614" stroke="#B7D1E1" stroke-width="2"/>
<path d="M2 70.0671L2 57.7386C17.5 56.7524 18 50.3415 18 43.9307" stroke="#B7D1E1" stroke-width="2"/>
<path d="M2 29.1365L2 16.808C17.5 15.8217 18 9.41086 18 3.00004" stroke="#B7D1E1" stroke-width="2"/>
<path d="M2 298.364L2 310.692C17.5 311.678 18 318.089 18 324.5" stroke="#B7D1E1" stroke-width="2"/>
<path d="M2 256.419L2 268.748C17.5 269.734 18 276.145 18 282.556" stroke="#B7D1E1" stroke-width="2"/>
<path d="M2 215.475L2 227.803C17.5 228.79 18 235.2 18 241.611" stroke="#B7D1E1" stroke-width="2"/>
<path d="M2 174.531L2 186.859C17.5 187.845 18 194.256 18 200.667" stroke="#B7D1E1" stroke-width="2"/>
<path d="M2 155.428L2 143.1C17.5 142.114 18 135.703 18 129.292" stroke="#B7D1E1" stroke-width="2"/>
<path d="M2 73.5671L2 61.2386C17.5 60.2524 18 53.8415 18 47.4307" stroke="#B7D1E1" stroke-width="2"/>
<path d="M2 114.567L2 102.239C17.5 101.252 18 94.8415 18 88.4307" stroke="#B7D1E1" stroke-width="2"/>
<path d="M2 32.6365L2 20.308C17.5 19.3217 18 12.9109 18 6.50004" stroke="#B7D1E1" stroke-width="2"/>
<path d="M2 301.864L2 314.192C17.5 315.178 18 321.589 18 328" stroke="#B7D1E1" stroke-width="2"/>
<path d="M2 259.919L2 272.248C17.5 273.234 18 279.645 18 286.056" stroke="#B7D1E1" stroke-width="2"/>
<path d="M2 218.975L2 231.303C17.5 232.29 18 238.7 18 245.111" stroke="#B7D1E1" stroke-width="2"/>
<path d="M2 178.031L2 190.359C17.5 191.345 18 197.756 18 204.167" stroke="#B7D1E1" stroke-width="2"/>
<path d="M2 143.5L2 154.349C17.5 155.217 18 160.858 18 166.5" stroke="#B7D1E1" stroke-width="2"/>
<path d="M2 103.156L2 115.484C17.5 116.47 18 122.881 18 129.292" stroke="#B7D1E1" stroke-width="2"/>
<path d="M2 62.2249L2 74.5534C17.5 75.5396 18 81.9505 18 88.3613" stroke="#B7D1E1" stroke-width="2"/>
<path d="M2 21.2942L2 33.6227C17.5 34.609 18 41.0198 18 47.4306" stroke="#B7D1E1" stroke-width="2"/>
<path d="M2 634.706L2 622.377C17.5 621.391 18 614.98 18 608.569" stroke="#B7D1E1" stroke-width="2"/>
<path d="M2 594.761L2 582.433C17.5 581.447 18 575.036 18 568.625" stroke="#B7D1E1" stroke-width="2"/>
<path d="M2 553.817L2 541.489C17.5 540.502 18 534.092 18 527.681" stroke="#B7D1E1" stroke-width="2"/>
<path d="M2 511.5L2 500.651C17.5 499.783 18 494.142 18 488.5" stroke="#B7D1E1" stroke-width="2"/>
<path d="M2 476.928L2 464.6C17.5 463.614 18 457.203 18 450.792" stroke="#B7D1E1" stroke-width="2"/>
<path d="M2 435.998L2 423.669C17.5 422.683 18 416.272 18 409.861" stroke="#B7D1E1" stroke-width="2"/>
<path d="M2 395.067L2 382.739C17.5 381.752 18 375.342 18 368.931" stroke="#B7D1E1" stroke-width="2"/>
<path d="M2 354.136L2 341.808C17.5 340.822 18 334.411 18 328" stroke="#B7D1E1" stroke-width="2"/>
<path d="M2 623.364L2 635.692C17.5 636.678 18 643.089 18 649.5" stroke="#B7D1E1" stroke-width="2"/>
<path d="M2 581.419L2 593.748C17.5 594.734 18 601.145 18 607.556" stroke="#B7D1E1" stroke-width="2"/>
<path d="M2 540.475L2 552.803C17.5 553.79 18 560.2 18 566.611" stroke="#B7D1E1" stroke-width="2"/>
<path d="M2 499.531L2 511.859C17.5 512.845 18 519.256 18 525.667" stroke="#B7D1E1" stroke-width="2"/>
<path d="M2 480.428L2 468.1C17.5 467.114 18 460.703 18 454.292" stroke="#B7D1E1" stroke-width="2"/>
<path d="M2 398.567L2 386.239C17.5 385.252 18 378.842 18 372.431" stroke="#B7D1E1" stroke-width="2"/>
<path d="M2 439.567L2 427.239C17.5 426.252 18 419.842 18 413.431" stroke="#B7D1E1" stroke-width="2"/>
<path d="M2 357.636L2 345.308C17.5 344.322 18 337.911 18 331.5" stroke="#B7D1E1" stroke-width="2"/>
<path d="M2 626.864L2 639.192C17.5 640.178 18 646.589 18 653" stroke="#B7D1E1" stroke-width="2"/>
<path d="M2 584.919L2 597.248C17.5 598.234 18 604.645 18 611.056" stroke="#B7D1E1" stroke-width="2"/>
<path d="M2 543.975L2 556.303C17.5 557.29 18 563.7 18 570.111" stroke="#B7D1E1" stroke-width="2"/>
<path d="M2 503.031L2 515.359C17.5 516.345 18 522.756 18 529.167" stroke="#B7D1E1" stroke-width="2"/>
<path d="M2 468.5L2 479.349C17.5 480.217 18 485.858 18 491.5" stroke="#B7D1E1" stroke-width="2"/>
<path d="M2 428.156L2 440.484C17.5 441.47 18 447.881 18 454.292" stroke="#B7D1E1" stroke-width="2"/>
<path d="M2 387.225L2 399.553C17.5 400.54 18 406.95 18 413.361" stroke="#B7D1E1" stroke-width="2"/>
<path d="M2 346.294L2 358.623C17.5 359.609 18 366.02 18 372.431" stroke="#B7D1E1" stroke-width="2"/>
<path d="M2 959.706L2 947.377C17.5 946.391 18 939.98 18 933.569" stroke="#B7D1E1" stroke-width="2"/>
<path d="M2 919.761L2 907.433C17.5 906.447 18 900.036 18 893.625" stroke="#B7D1E1" stroke-width="2"/>
<path d="M2 878.817L2 866.489C17.5 865.502 18 859.092 18 852.681" stroke="#B7D1E1" stroke-width="2"/>
<path d="M2 836.5L2 825.651C17.5 824.783 18 819.142 18 813.5" stroke="#B7D1E1" stroke-width="2"/>
<path d="M2 801.928L2 789.6C17.5 788.614 18 782.203 18 775.792" stroke="#B7D1E1" stroke-width="2"/>
<path d="M2 760.998L2 748.669C17.5 747.683 18 741.272 18 734.861" stroke="#B7D1E1" stroke-width="2"/>
<path d="M2 720.067L2 707.739C17.5 706.752 18 700.342 18 693.931" stroke="#B7D1E1" stroke-width="2"/>
<path d="M2 679.136L2 666.808C17.5 665.822 18 659.411 18 653" stroke="#B7D1E1" stroke-width="2"/>
<path d="M2 948.364L2 960.692C17.5 961.678 18 968.089 18 974.5" stroke="#B7D1E1" stroke-width="2"/>
<path d="M2 906.419L2 918.748C17.5 919.734 18 926.145 18 932.556" stroke="#B7D1E1" stroke-width="2"/>
<path d="M2 865.475L2 877.803C17.5 878.79 18 885.2 18 891.611" stroke="#B7D1E1" stroke-width="2"/>
<path d="M2 824.531L2 836.859C17.5 837.845 18 844.256 18 850.667" stroke="#B7D1E1" stroke-width="2"/>
<path d="M2 805.428L2 793.1C17.5 792.114 18 785.703 18 779.292" stroke="#B7D1E1" stroke-width="2"/>
<path d="M2 723.567L2 711.239C17.5 710.252 18 703.842 18 697.431" stroke="#B7D1E1" stroke-width="2"/>
<path d="M2 764.567L2 752.239C17.5 751.252 18 744.842 18 738.431" stroke="#B7D1E1" stroke-width="2"/>
<path d="M2 682.636L2 670.308C17.5 669.322 18 662.911 18 656.5" stroke="#B7D1E1" stroke-width="2"/>
<path d="M2 951.864L2 964.192C17.5 965.178 18 971.589 18 978" stroke="#B7D1E1" stroke-width="2"/>
<path d="M2 909.919L2 922.248C17.5 923.234 18 929.645 18 936.056" stroke="#B7D1E1" stroke-width="2"/>
<path d="M2 868.975L2 881.303C17.5 882.29 18 888.7 18 895.111" stroke="#B7D1E1" stroke-width="2"/>
<path d="M2 828.031L2 840.359C17.5 841.345 18 847.756 18 854.167" stroke="#B7D1E1" stroke-width="2"/>
<path d="M2 793.5L2 804.349C17.5 805.217 18 810.858 18 816.5" stroke="#B7D1E1" stroke-width="2"/>
<path d="M2 753.156L2 765.484C17.5 766.47 18 772.881 18 779.292" stroke="#B7D1E1" stroke-width="2"/>
<path d="M2 712.225L2 724.553C17.5 725.54 18 731.95 18 738.361" stroke="#B7D1E1" stroke-width="2"/>
<path d="M2 671.294L2 683.623C17.5 684.609 18 691.02 18 697.431" stroke="#B7D1E1" stroke-width="2"/>
<path d="M2 1174.12L2 1162.52C17.5 1161.6 18 1155.57 18 1149.54" stroke="#B7D1E1" stroke-width="2"/>
<path d="M2 1137.17L2 1123.99C17.5 1122.94 18 1116.09 18 1109.24" stroke="#B7D1E1" stroke-width="2"/>
<path d="M2 1093.42L2 1080.25C17.5 1079.19 18 1072.34 18 1065.49" stroke="#B7D1E1" stroke-width="2"/>
<path d="M2 1049.68L2 1036.5C17.5 1035.45 18 1028.6 18 1021.75" stroke="#B7D1E1" stroke-width="2"/>
<path d="M2 1005.93L2 992.757C17.5 991.703 18 984.852 18 978" stroke="#B7D1E1" stroke-width="2"/>
<path d="M2 1161.33L2 1174.5C17.5 1175.56 18 1182.41 18 1189.26" stroke="#B7D1E1" stroke-width="2"/>
<path d="M2 1140.91L2 1127.73C17.5 1126.68 18 1119.83 18 1112.98" stroke="#B7D1E1" stroke-width="2"/>
<path d="M2 1053.42L2 1040.24C17.5 1039.19 18 1032.34 18 1025.49" stroke="#B7D1E1" stroke-width="2"/>
<path d="M2 1097.24L2 1084.06C17.5 1083.01 18 1076.16 18 1069.31" stroke="#B7D1E1" stroke-width="2"/>
<path d="M2 1009.67L2 996.498C17.5 995.444 18 988.592 18 981.741" stroke="#B7D1E1" stroke-width="2"/>
<path d="M2 1165.07L2 1178.24C17.5 1179.3 18 1186.15 18 1193" stroke="#B7D1E1" stroke-width="2"/>
<path d="M2 1128.16L2 1139.76C17.5 1140.68 18 1146.71 18 1152.74" stroke="#B7D1E1" stroke-width="2"/>
<path d="M2 1085.04L2 1098.22C17.5 1099.27 18 1106.12 18 1112.98" stroke="#B7D1E1" stroke-width="2"/>
<path d="M2 1041.3L2 1054.47C17.5 1055.53 18 1062.38 18 1069.23" stroke="#B7D1E1" stroke-width="2"/>
<path d="M2 997.552L2 1010.73C17.5 1011.78 18 1018.63 18 1025.49" stroke="#B7D1E1" stroke-width="2"/>
<path d="M698 309.706V297.377C682.5 296.391 682 289.98 682 283.569" stroke="#B7D1E1" stroke-width="2"/>
<path d="M698 269.761V257.433C682.5 256.447 682 250.036 682 243.625" stroke="#B7D1E1" stroke-width="2"/>
<path d="M698 228.817V216.489C682.5 215.502 682 209.092 682 202.681" stroke="#B7D1E1" stroke-width="2"/>
<path d="M698 186.5V175.651C682.5 174.783 682 169.142 682 163.5" stroke="#B7D1E1" stroke-width="2"/>
<path d="M698 151.928V139.6C682.5 138.614 682 132.203 682 125.792" stroke="#B7D1E1" stroke-width="2"/>
<path d="M698 110.998V98.6693C682.5 97.683 682 91.2722 682 84.8614" stroke="#B7D1E1" stroke-width="2"/>
<path d="M698 70.0671V57.7386C682.5 56.7524 682 50.3415 682 43.9307" stroke="#B7D1E1" stroke-width="2"/>
<path d="M698 29.1365V16.808C682.5 15.8217 682 9.41086 682 3.00004" stroke="#B7D1E1" stroke-width="2"/>
<path d="M698 298.364V310.692C682.5 311.678 682 318.089 682 324.5" stroke="#B7D1E1" stroke-width="2"/>
<path d="M698 256.419V268.748C682.5 269.734 682 276.145 682 282.556" stroke="#B7D1E1" stroke-width="2"/>
<path d="M698 215.475V227.803C682.5 228.79 682 235.2 682 241.611" stroke="#B7D1E1" stroke-width="2"/>
<path d="M698 174.531V186.859C682.5 187.845 682 194.256 682 200.667" stroke="#B7D1E1" stroke-width="2"/>
<path d="M698 155.428V143.1C682.5 142.114 682 135.703 682 129.292" stroke="#B7D1E1" stroke-width="2"/>
<path d="M698 73.5671V61.2386C682.5 60.2524 682 53.8415 682 47.4307" stroke="#B7D1E1" stroke-width="2"/>
<path d="M698 114.567V102.239C682.5 101.252 682 94.8415 682 88.4307" stroke="#B7D1E1" stroke-width="2"/>
<path d="M698 32.6365V20.308C682.5 19.3217 682 12.9109 682 6.50004" stroke="#B7D1E1" stroke-width="2"/>
<path d="M698 301.864V314.192C682.5 315.178 682 321.589 682 328" stroke="#B7D1E1" stroke-width="2"/>
<path d="M698 259.919V272.248C682.5 273.234 682 279.645 682 286.056" stroke="#B7D1E1" stroke-width="2"/>
<path d="M698 218.975V231.303C682.5 232.29 682 238.7 682 245.111" stroke="#B7D1E1" stroke-width="2"/>
<path d="M698 178.031V190.359C682.5 191.345 682 197.756 682 204.167" stroke="#B7D1E1" stroke-width="2"/>
<path d="M698 143.5V154.349C682.5 155.217 682 160.858 682 166.5" stroke="#B7D1E1" stroke-width="2"/>
<path d="M698 103.156V115.484C682.5 116.47 682 122.881 682 129.292" stroke="#B7D1E1" stroke-width="2"/>
<path d="M698 62.2249V74.5534C682.5 75.5396 682 81.9505 682 88.3613" stroke="#B7D1E1" stroke-width="2"/>
<path d="M698 21.2942V33.6227C682.5 34.609 682 41.0198 682 47.4306" stroke="#B7D1E1" stroke-width="2"/>
<path d="M698 631.706V619.377C682.5 618.391 682 611.98 682 605.569" stroke="#B7D1E1" stroke-width="2"/>
<path d="M698 591.761V579.433C682.5 578.447 682 572.036 682 565.625" stroke="#B7D1E1" stroke-width="2"/>
<path d="M698 550.817V538.489C682.5 537.502 682 531.092 682 524.681" stroke="#B7D1E1" stroke-width="2"/>
<path d="M698 508.5V497.651C682.5 496.783 682 491.142 682 485.5" stroke="#B7D1E1" stroke-width="2"/>
<path d="M698 473.928V461.6C682.5 460.614 682 454.203 682 447.792" stroke="#B7D1E1" stroke-width="2"/>
<path d="M698 432.998V420.669C682.5 419.683 682 413.272 682 406.861" stroke="#B7D1E1" stroke-width="2"/>
<path d="M698 392.067V379.739C682.5 378.752 682 372.342 682 365.931" stroke="#B7D1E1" stroke-width="2"/>
<path d="M698 351.136V338.808C682.5 337.822 682 331.411 682 325" stroke="#B7D1E1" stroke-width="2"/>
<path d="M698 620.364V632.692C682.5 633.678 682 640.089 682 646.5" stroke="#B7D1E1" stroke-width="2"/>
<path d="M698 578.419V590.748C682.5 591.734 682 598.145 682 604.556" stroke="#B7D1E1" stroke-width="2"/>
<path d="M698 537.475V549.803C682.5 550.79 682 557.2 682 563.611" stroke="#B7D1E1" stroke-width="2"/>
<path d="M698 496.531V508.859C682.5 509.845 682 516.256 682 522.667" stroke="#B7D1E1" stroke-width="2"/>
<path d="M698 477.428V465.1C682.5 464.114 682 457.703 682 451.292" stroke="#B7D1E1" stroke-width="2"/>
<path d="M698 395.567V383.239C682.5 382.252 682 375.842 682 369.431" stroke="#B7D1E1" stroke-width="2"/>
<path d="M698 436.567V424.239C682.5 423.252 682 416.842 682 410.431" stroke="#B7D1E1" stroke-width="2"/>
<path d="M698 354.636V342.308C682.5 341.322 682 334.911 682 328.5" stroke="#B7D1E1" stroke-width="2"/>
<path d="M698 623.864V636.192C682.5 637.178 682 643.589 682 650" stroke="#B7D1E1" stroke-width="2"/>
<path d="M698 581.919V594.248C682.5 595.234 682 601.645 682 608.056" stroke="#B7D1E1" stroke-width="2"/>
<path d="M698 540.975V553.303C682.5 554.29 682 560.7 682 567.111" stroke="#B7D1E1" stroke-width="2"/>
<path d="M698 500.031V512.359C682.5 513.345 682 519.756 682 526.167" stroke="#B7D1E1" stroke-width="2"/>
<path d="M698 465.5V476.349C682.5 477.217 682 482.858 682 488.5" stroke="#B7D1E1" stroke-width="2"/>
<path d="M698 425.156V437.484C682.5 438.47 682 444.881 682 451.292" stroke="#B7D1E1" stroke-width="2"/>
<path d="M698 384.225V396.553C682.5 397.54 682 403.95 682 410.361" stroke="#B7D1E1" stroke-width="2"/>
<path d="M698 343.294V355.623C682.5 356.609 682 363.02 682 369.431" stroke="#B7D1E1" stroke-width="2"/>
<path d="M698 953.706V941.377C682.5 940.391 682 933.98 682 927.569" stroke="#B7D1E1" stroke-width="2"/>
<path d="M698 913.761V901.433C682.5 900.447 682 894.036 682 887.625" stroke="#B7D1E1" stroke-width="2"/>
<path d="M698 872.817V860.489C682.5 859.502 682 853.092 682 846.681" stroke="#B7D1E1" stroke-width="2"/>
<path d="M698 830.5V819.651C682.5 818.783 682 813.142 682 807.5" stroke="#B7D1E1" stroke-width="2"/>
<path d="M698 795.928V783.6C682.5 782.614 682 776.203 682 769.792" stroke="#B7D1E1" stroke-width="2"/>
<path d="M698 754.998V742.669C682.5 741.683 682 735.272 682 728.861" stroke="#B7D1E1" stroke-width="2"/>
<path d="M698 714.067V701.739C682.5 700.752 682 694.342 682 687.931" stroke="#B7D1E1" stroke-width="2"/>
<path d="M698 673.136V660.808C682.5 659.822 682 653.411 682 647" stroke="#B7D1E1" stroke-width="2"/>
<path d="M698 942.364V954.692C682.5 955.678 682 962.089 682 968.5" stroke="#B7D1E1" stroke-width="2"/>
<path d="M698 900.419V912.748C682.5 913.734 682 920.145 682 926.556" stroke="#B7D1E1" stroke-width="2"/>
<path d="M698 859.475V871.803C682.5 872.79 682 879.2 682 885.611" stroke="#B7D1E1" stroke-width="2"/>
<path d="M698 818.531V830.859C682.5 831.845 682 838.256 682 844.667" stroke="#B7D1E1" stroke-width="2"/>
<path d="M698 799.428V787.1C682.5 786.114 682 779.703 682 773.292" stroke="#B7D1E1" stroke-width="2"/>
<path d="M698 717.567V705.239C682.5 704.252 682 697.842 682 691.431" stroke="#B7D1E1" stroke-width="2"/>
<path d="M698 758.567V746.239C682.5 745.252 682 738.842 682 732.431" stroke="#B7D1E1" stroke-width="2"/>
<path d="M698 676.636V664.308C682.5 663.322 682 656.911 682 650.5" stroke="#B7D1E1" stroke-width="2"/>
<path d="M698 945.864V958.192C682.5 959.178 682 965.589 682 972" stroke="#B7D1E1" stroke-width="2"/>
<path d="M698 903.919V916.248C682.5 917.234 682 923.645 682 930.056" stroke="#B7D1E1" stroke-width="2"/>
<path d="M698 862.975V875.303C682.5 876.29 682 882.7 682 889.111" stroke="#B7D1E1" stroke-width="2"/>
<path d="M698 822.031V834.359C682.5 835.345 682 841.756 682 848.167" stroke="#B7D1E1" stroke-width="2"/>
<path d="M698 787.5V798.349C682.5 799.217 682 804.858 682 810.5" stroke="#B7D1E1" stroke-width="2"/>
<path d="M698 747.156V759.484C682.5 760.47 682 766.881 682 773.292" stroke="#B7D1E1" stroke-width="2"/>
<path d="M698 706.225V718.553C682.5 719.54 682 725.95 682 732.361" stroke="#B7D1E1" stroke-width="2"/>
<path d="M698 665.294V677.623C682.5 678.609 682 685.02 682 691.431" stroke="#B7D1E1" stroke-width="2"/>
<path d="M698 1174.24V1162.11C682.5 1161.13 682 1154.82 682 1148.51" stroke="#B7D1E1" stroke-width="2"/>
<path d="M698 1135.57V1121.78C682.5 1120.68 682 1113.51 682 1106.34" stroke="#B7D1E1" stroke-width="2"/>
<path d="M698 1089.79V1076C682.5 1074.9 682 1067.73 682 1060.56" stroke="#B7D1E1" stroke-width="2"/>
<path d="M698 1044.01V1030.22C682.5 1029.12 682 1021.95 682 1014.78" stroke="#B7D1E1" stroke-width="2"/>
<path d="M698 998.233V984.444C682.5 983.341 682 976.17 682 969" stroke="#B7D1E1" stroke-width="2"/>
<path d="M698 1160.85V1174.64C682.5 1175.74 682 1182.91 682 1190.09" stroke="#B7D1E1" stroke-width="2"/>
<path d="M698 1139.49V1125.7C682.5 1124.6 682 1117.42 682 1110.25" stroke="#B7D1E1" stroke-width="2"/>
<path d="M698 1047.93V1034.14C682.5 1033.04 682 1025.87 682 1018.69" stroke="#B7D1E1" stroke-width="2"/>
<path d="M698 1093.78V1080C682.5 1078.89 682 1071.72 682 1064.55" stroke="#B7D1E1" stroke-width="2"/>
<path d="M698 1002.15V988.359C682.5 987.255 682 980.085 682 972.915" stroke="#B7D1E1" stroke-width="2"/>
<path d="M698 1164.77V1178.56C682.5 1179.66 682 1186.83 682 1194" stroke="#B7D1E1" stroke-width="2"/>
<path d="M698 1126.15V1138.28C682.5 1139.25 682 1145.56 682 1151.87" stroke="#B7D1E1" stroke-width="2"/>
<path d="M698 1081.02V1094.81C682.5 1095.91 682 1103.08 682 1110.25" stroke="#B7D1E1" stroke-width="2"/>
<path d="M698 1035.24V1049.03C682.5 1050.13 682 1057.3 682 1064.47" stroke="#B7D1E1" stroke-width="2"/>
<path d="M698 989.462V1003.25C682.5 1004.35 682 1011.52 682 1018.69" stroke="#B7D1E1" stroke-width="2"/>
</g>
<defs>
<filter id="filter0_f_116_692" x="0" y="0" width="700" height="1195" filterUnits="userSpaceOnUse" color-interpolation-filters="sRGB">
<feFlood flood-opacity="0" result="BackgroundImageFix"/>
<feBlend mode="normal" in="SourceGraphic" in2="BackgroundImageFix" result="shape"/>
<feGaussianBlur stdDeviation="0.5" result="effect1_foregroundBlur_116_692"/>
</filter>
</defs>
</svg>
